<?xml version="1.0" encoding="UTF-8" standalone="no"?>
<!-- Created with Inkscape (http://www.inkscape.org/) -->

<svg
   version="1.1"
   id="svg1"
   width="793.70135"
   height="226.772"
   viewBox="0 0 793.70135 226.772"
   sodipodi:docname="Logo_GP_Joule.svg"
   inkscape:version="1.3.2 (091e20e, 2023-11-25, custom)"
   xmlns:inkscape="http://www.inkscape.org/namespaces/inkscape"
   xmlns:sodipodi="http://sodipodi.sourceforge.net/DTD/sodipodi-0.dtd"
   xmlns="http://www.w3.org/2000/svg"
   xmlns:svg="http://www.w3.org/2000/svg">
  <defs
     id="defs1">
    <clipPath
       clipPathUnits="userSpaceOnUse"
       id="clipPath48">
      <path
         d="M 0,139.415 H 404.181 V 0 H 0 Z"
         transform="translate(-404.18071,-2.0137026)"
         id="path48" />
    </clipPath>
    <clipPath
       clipPathUnits="userSpaceOnUse"
       id="clipPath46">
      <path
         d="M 0,139.415 H 404.181 V 0 H 0 Z"
         transform="translate(-394.11721,-8.6270002)"
         id="path46" />
    </clipPath>
    <clipPath
       clipPathUnits="userSpaceOnUse"
       id="clipPath44">
      <path
         d="M 0,139.415 H 404.181 V 0 H 0 Z"
         transform="translate(-377.09471,-21.335901)"
         id="path44" />
    </clipPath>
    <clipPath
       clipPathUnits="userSpaceOnUse"
       id="clipPath42">
      <path
         d="M 0,139.415 H 404.181 V 0 H 0 Z"
         transform="translate(-361.51071,-15.1973)"
         id="path42" />
    </clipPath>
    <clipPath
       clipPathUnits="userSpaceOnUse"
       id="clipPath40">
      <path
         d="M 0,139.415 H 404.181 V 0 H 0 Z"
         transform="translate(-337.78911,-0.48830001)"
         id="path40" />
    </clipPath>
    <clipPath
       clipPathUnits="userSpaceOnUse"
       id="clipPath38">
      <path
         d="M 0,139.415 H 404.181 V 0 H 0 Z"
         transform="translate(-326.97751,-0.48830001)"
         id="path38" />
    </clipPath>
    <clipPath
       clipPathUnits="userSpaceOnUse"
       id="clipPath36">
      <path
         d="M 0,139.415 H 404.181 V 0 H 0 Z"
         transform="translate(-302.45121,-0.48830001)"
         id="path36" />
    </clipPath>
    <clipPath
       clipPathUnits="userSpaceOnUse"
       id="clipPath34">
      <path
         d="M 0,139.415 H 404.181 V 0 H 0 Z"
         transform="translate(-280.08111,-15.1973)"
         id="path34" />
    </clipPath>
    <clipPath
       clipPathUnits="userSpaceOnUse"
       id="clipPath32">
      <path
         d="M 0,139.415 H 404.181 V 0 H 0 Z"
         transform="translate(-264.0937,-4.5722976)"
         id="path32" />
    </clipPath>
    <clipPath
       clipPathUnits="userSpaceOnUse"
       id="clipPath30">
      <path
         d="M 0,139.415 H 404.181 V 0 H 0 Z"
         transform="translate(-242.96001,-10.6973)"
         id="path30" />
    </clipPath>
    <clipPath
       clipPathUnits="userSpaceOnUse"
       id="clipPath28">
      <path
         d="M 0,139.415 H 404.181 V 0 H 0 Z"
         transform="translate(-222.4297,-8.6270002)"
         id="path28" />
    </clipPath>
    <clipPath
       clipPathUnits="userSpaceOnUse"
       id="clipPath26">
      <path
         d="M 0,139.415 H 404.181 V 0 H 0 Z"
         transform="translate(-196.78221,-18.632803)"
         id="path26" />
    </clipPath>
    <clipPath
       clipPathUnits="userSpaceOnUse"
       id="clipPath24">
      <path
         d="M 0,139.415 H 404.181 V 0 H 0 Z"
         transform="translate(-185.97171,-5.8945026)"
         id="path24" />
    </clipPath>
    <clipPath
       clipPathUnits="userSpaceOnUse"
       id="clipPath22">
      <path
         d="M 0,139.415 H 404.181 V 0 H 0 Z"
         transform="translate(-168.9492,-4.5722976)"
         id="path22" />
    </clipPath>
    <clipPath
       clipPathUnits="userSpaceOnUse"
       id="clipPath20">
      <path
         d="M 0,139.415 H 404.181 V 0 H 0 Z"
         transform="translate(-148.1611,-15.1973)"
         id="path20" />
    </clipPath>
    <clipPath
       clipPathUnits="userSpaceOnUse"
       id="clipPath18">
      <path
         d="M 0,139.415 H 404.181 V 0 H 0 Z"
         transform="translate(-130.5928,-18.632803)"
         id="path18" />
    </clipPath>
    <clipPath
       clipPathUnits="userSpaceOnUse"
       id="clipPath16">
      <path
         d="M 0,139.415 H 404.181 V 0 H 0 Z"
         transform="translate(-14.7109,-46.830104)"
         id="path16" />
    </clipPath>
    <clipPath
       clipPathUnits="userSpaceOnUse"
       id="clipPath14">
      <path
         d="M 0,139.415 H 404.181 V 0 H 0 Z"
         transform="translate(-84.494102,-95.103002)"
         id="path14" />
    </clipPath>
    <clipPath
       clipPathUnits="userSpaceOnUse"
       id="clipPath12">
      <path
         d="M 0,139.415 H 404.181 V 0 H 0 Z"
         transform="translate(-360.34371,-42.601604)"
         id="path12" />
    </clipPath>
    <clipPath
       clipPathUnits="userSpaceOnUse"
       id="clipPath10">
      <path
         d="M 0,139.415 H 404.181 V 0 H 0 Z"
         transform="translate(-147.6895,-42.753899)"
         id="path10" />
    </clipPath>
    <clipPath
       clipPathUnits="userSpaceOnUse"
       id="clipPath8">
      <path
         d="M 0,139.415 H 404.181 V 0 H 0 Z"
         transform="translate(-309.02731,-42.837899)"
         id="path8" />
    </clipPath>
    <clipPath
       clipPathUnits="userSpaceOnUse"
       id="clipPath6">
      <path
         d="M 0,139.415 H 404.181 V 0 H 0 Z"
         transform="translate(-272.32711,-42.458999)"
         id="path6" />
    </clipPath>
    <clipPath
       clipPathUnits="userSpaceOnUse"
       id="clipPath4">
      <path
         d="M 0,139.415 H 404.181 V 0 H 0 Z"
         transform="translate(-210.2881,-122.8882)"
         id="path4" />
    </clipPath>
    <clipPath
       clipPathUnits="userSpaceOnUse"
       id="clipPath2">
      <path
         d="M 0,139.415 H 404.181 V 0 H 0 Z"
         transform="translate(-180.24801,-42.634799)"
         id="path2" />
    </clipPath>
  </defs>
  <sodipodi:namedview
     id="namedview1"
     pagecolor="#ffffff"
     bordercolor="#000000"
     borderopacity="0.25"
     inkscape:showpageshadow="2"
     inkscape:pageopacity="0.0"
     inkscape:pagecheckerboard="0"
     inkscape:deskcolor="#d1d1d1"
     inkscape:zoom="1.7349095"
     inkscape:cx="293.09887"
     inkscape:cy="109.2276"
     inkscape:window-width="3840"
     inkscape:window-height="2054"
     inkscape:window-x="10069"
     inkscape:window-y="-11"
     inkscape:window-maximized="1"
     inkscape:current-layer="g1">
    <inkscape:page
       x="0"
       y="0"
       inkscape:label="1"
       id="page1"
       width="793.70135"
       height="226.772"
       margin="0"
       bleed="0"
       inkscape:export-filename="BO_Nahwärme-Logo_Vektor.png"
       inkscape:export-xdpi="500"
       inkscape:export-ydpi="500" />
  </sodipodi:namedview>
  <g
     id="g1"
     inkscape:groupmode="layer"
     inkscape:label="1">
    <g
       id="g2"
       transform="translate(-103.60312,-4.5570667)">
      <path
         id="path1"
         d="m 0,0 c -0.018,0.045 -0.035,0.1 -0.054,0.156 -0.384,1.186 -0.51,9.041 -0.284,12.059 0.199,2.631 -0.098,5.484 0.109,7.995 0,0 0.024,0.254 0.028,0.297 0.04,0.002 0.083,0.002 0.133,0.002 0.554,0.006 1.888,0.004 2.443,-0.002 0.426,-0.005 0.851,-0.01 1.275,-0.021 7.276,-0.149 18.33,-0.188 25.608,-0.054 5.253,0.097 14.662,-0.123 19.914,0.122 1.381,0.065 2.629,0.122 3.877,0.151 1.022,0.014 2.057,0.03 3.091,0.019 l 0.454,-0.007 c 0.98,-0.019 1.847,-0.062 2.651,-0.133 0.335,-0.028 0.681,-0.06 0.761,-0.107 0.023,-0.056 0.043,-0.391 0.062,-0.716 0.092,-1.484 0.203,-3.454 0.325,-5.587 0,0 -0.557,-9.139 -0.325,-12.225 0.024,-0.351 0.01,-0.738 -0.037,-1.15 -0.092,-0.817 -0.092,-0.817 -0.81,-0.854 C 43.727,-0.924 21.256,1.752 5.775,0.139 4.603,0.016 2.529,-0.029 0.767,-0.01 Z"
         style="fill:#fee722;fill-opacity:1;fill-rule:nonzero;stroke:none"
         transform="matrix(1.3333333,0,0,-1.3333333,471.33067,154.03974)"
         clip-path="url(#clipPath2)" />
      <path
         id="path3"
         d="m 0,0 c -2.501,0.047 -4.954,-0.464 -6.901,-1.708 -6.455,-4.141 -8.366,-12.35 -5.608,-19.46 0.383,-0.986 1.039,-2.054 1.951,-3.168 5.789,-7.075 21.789,-4.852 24.166,4.954 0.848,3.501 1.116,8.17 -0.275,11.684 -0.899,2.281 -2.336,4.179 -4.375,5.552 C 6.534,-0.518 3.327,-0.062 0,0 m -0.983,-47.549 c -6.721,0.004 -11.044,1.551 -16.748,5.625 -1.924,1.374 -4.537,3.024 -6.049,4.948 -9.949,12.664 -11.981,29.691 -1.475,41.162 0.608,0.664 1.168,1.34 1.723,2.021 0.499,0.607 0.973,1.186 1.484,1.757 1.635,1.834 3.694,3.138 6.293,3.988 4.685,1.514 10.02,3.718 14.965,3.662 3.713,-0.043 7.434,-0.311 11.125,-0.703 6.027,-0.636 10.765,-2.708 14.088,-6.159 9.597,-9.964 10.58,-31.999 2.528,-43.016 -2.741,-3.752 -7.794,-8.698 -12.257,-10.326 -4.849,-1.767 -10.32,-2.962 -15.677,-2.959"
         style="fill:#231f20;fill-opacity:1;fill-rule:nonzero;stroke:none"
         transform="matrix(1.3333333,0,0,-1.3333333,511.38413,47.0352)"
         clip-path="url(#clipPath4)" />
      <path
         id="path5"
         d="m 0,0 c -1.603,0.146 -3.181,0.477 -4.71,1.023 -14.391,5.163 -17.414,22.461 -18.291,36.002 -0.303,4.656 -0.706,9.341 -0.683,14.004 0.132,26.103 0.132,21.655 0.788,42.651 0.067,2.127 0.11,2.133 2.383,2.487 4.295,0.67 8.683,0.142 13.008,0.518 0.547,0.05 -0.121,0.086 0.307,0.118 0.631,0.045 1.142,0.079 1.552,0.077 0.793,-0.014 0.917,-0.143 0.977,-0.206 0.188,-0.197 0.26,-0.586 0.186,-2.375 L -4.581,92.022 C -5.058,80.781 -4.726,79.05 -5.419,67.815 c 0.039,1.48 0.088,2.96 0.129,4.439 -0.24,-11.026 -0.219,-12.982 0.383,-24.001 0.349,-6.417 0.029,-17.102 4.861,-22.22 3.712,-3.935 6.914,-0.533 8.385,1.89 2.336,3.849 2.412,10.137 2.139,15.361 C 9.702,58.071 10.44,70.148 10.401,65.857 10.171,77.04 9.622,84.187 9.354,91.799 l 0.002,0.118 c 0.011,0.653 0.024,1.242 0.022,1.828 0,1.896 0.158,3.078 2.188,3.087 l 0.691,-0.009 c 4.953,-0.093 9.083,-0.099 14.037,-0.015 0.268,-0.009 0.446,-0.03 0.666,-0.084 1.105,-0.263 1.578,-0.852 1.584,-1.968 0.016,-1.928 0.023,-3.855 0.03,-5.777 l 0.005,-0.853 c 0.025,-7.892 0.16,-7.126 0.34,-15.048 0.15,-6.623 -0.023,-11.671 0.15,-17.07 l -0.01,-0.338 c -0.062,-1.563 0.052,-2.406 0.007,-3.903 -0.12,-3.999 -0.227,-7.994 -0.333,-11.986 l -0.195,-7.217 c -0.08,-2.832 -0.105,-5.76 -0.481,-8.653 -0.544,-4.191 -1.49,-6.35 -2.47,-8.681 C 24.202,11.938 22.839,9.273 18.897,5.791 13.847,1.328 8.479,-0.771 0,0"
         style="fill:#231f20;fill-opacity:1;fill-rule:nonzero;stroke:none"
         transform="matrix(1.3333333,0,0,-1.3333333,594.1028,154.27414)"
         clip-path="url(#clipPath6)" />
      <path
         id="path7"
         d="m 0,0 c -1.014,1.418 0.138,11.807 -0.027,14.568 -0.26,4.376 -0.112,8.788 -0.043,13.167 0.306,19.562 0.496,22.231 0.545,41.798 0.007,2.856 0.078,5.732 -0.071,8.587 -0.119,2.34 -0.027,4.746 0.08,6.793 0.203,3.748 0.114,5.485 -0.271,8.254 -0.033,0.25 -0.02,0.575 -0.01,0.768 0,0 0.006,0.206 0.006,0.215 0.157,3.288 17.533,1.857 17.603,1.857 0.399,-0.006 0.7,-0.143 1.075,-0.493 1.195,-1.106 0.449,-1.328 0.621,-3.089 0.066,-0.68 0.078,-1.393 0.08,-2.059 L 19.6,88.929 c 0.029,-3.486 0.056,-5.681 0.227,-9.12 0.443,-8.854 0.107,-10.235 -0.102,-19.093 -0.204,-8.52 0.58,-7.727 0.041,-16.214 -0.152,-2.392 -0.18,-4.703 -0.2,-6.864 -0.029,-2.841 -0.011,-7.637 0.006,-10.478 l 0.008,-0.971 c 0.006,-1.461 -0.328,-3.061 -0.062,-4.772 l -0.091,-1.56 2.471,-0.095 c 0.729,-0.032 3.196,-0.118 3.196,-0.118 l 0.191,-0.006 c 6.516,0 3.584,0.494 10.094,0.165 -0.605,-0.032 -1.209,-0.068 -1.815,-0.081 3.36,0.069 7.966,1.566 8.314,-3.312 0.238,-3.342 -0.095,-4.887 0.009,-8.262 C 41.729,6.682 41.557,5.066 41.441,3.492 41.394,2.762 41.152,2.074 40.659,1.258 40.311,0.68 39.851,0.354 39.08,0.119 32.308,-1.937 6.469,0.244 2.932,-1 2.764,-1.061 1.929,-1.033 1.74,-1 0.732,-0.816 0.533,-0.746 0,0"
         style="fill:#231f20;fill-opacity:1;fill-rule:nonzero;stroke:none"
         transform="matrix(1.3333333,0,0,-1.3333333,643.0364,153.76894)"
         clip-path="url(#clipPath8)" />
      <path
         id="path9"
         d="m 0,0 c -0.828,0.01 -1.65,0.07 -2.457,0.182 -9.553,1.341 -18.199,9.523 -19.698,19.066 -0.159,1.011 -0.423,2.013 -0.654,2.899 l -0.13,0.512 c 0.101,0.057 0.197,0.109 0.244,0.12 0.776,0.115 1.544,0.265 2.317,0.421 4.86,0.979 8.649,2.136 13.613,1.269 0.492,-0.086 0.781,-0.134 1.068,-0.175 0.127,-0.016 0.164,-2.119 1.539,-3.494 1.582,-1.583 2.336,-1.787 4.535,-1.787 5.68,0 4.553,24.277 4.535,29.738 C 4.871,61.565 4.168,69.445 4.18,76.792 4.201,88.951 3.895,81.51 3.492,93.652 c -0.076,2.337 1.358,2.421 1.637,2.442 7.161,0.582 13.032,0.307 17.607,0.307 2.2,0 1.1,-5.086 1.1,-5.086 0.018,-7.764 0.332,-25.788 0.87,-41.464 0.191,-5.548 0.062,-24.556 -0.409,-26.768 -0.236,-1.121 -0.754,-4.336 -1.33,-5.854 C 21.074,12.268 20.125,9.713 13.344,4.766 8.553,1.271 6.138,-0.084 0,0"
         style="fill:#231f20;fill-opacity:1;fill-rule:nonzero;stroke:none"
         transform="matrix(1.3333333,0,0,-1.3333333,427.91933,153.88094)"
         clip-path="url(#clipPath10)" />
      <path
         id="path11"
         d="m 0,0 c -1.158,0 -2,0.492 -2.5,1.469 -0.496,0.98 0.012,1.679 -0.213,2.681 -0.314,1.459 -0.467,1.871 -0.574,3.159 -0.537,6.9 -0.803,13.852 -0.625,20.774 0.016,0.581 0.029,1.16 0.039,1.74 0.22,14.854 -0.197,11.624 -0.468,26.475 -0.13,7.2 0.008,14.349 -0.241,21.555 -0.147,4.189 -1.346,13.648 0.953,17.459 0.662,1.089 1.924,1.23 2.949,1.23 0.473,0 0.965,-0.034 1.449,-0.068 5.633,-0.387 7.817,0.161 13.465,0.149 8.075,-0.022 9.698,-0.622 17.76,0.095 0.645,0.065 1.167,0.095 1.647,0.095 0.443,0 0.845,-0.027 1.23,-0.079 2.472,-0.363 2.699,-2.765 2.699,-5.222 0.002,-8.247 1.726,-14.164 -3.299,-14.318 -0.207,-0.007 -0.417,-0.011 -0.625,-0.011 -0.549,0 -1.099,0.02 -1.65,0.036 -0.557,0.02 -2.209,0.037 -2.76,0.037 C 21.98,77.248 23.725,77.54 16.468,77.492 15.613,77.484 15.1,77.337 14.797,77.024 14.52,76.736 14.396,76.268 14.41,75.548 c 0.118,-6.411 0.086,-7.308 0.272,-13.717 0.015,-0.554 0.144,-1.106 0.268,-1.641 l 0.134,-0.595 0.167,-0.103 c 1.248,-0.78 2.571,-0.844 3.932,-0.844 l 0.381,-0.002 c 6.082,0 6.638,-0.349 12.706,0.12 l 1.444,0.108 c 0.134,0.01 0.263,0.014 0.39,0.014 1.585,0 3.045,-0.489 3.193,-2.106 0.25,-2.737 0.682,-4.882 0.273,-7.561 -0.222,-1.472 0.551,-8.799 -0.273,-10.172 -0.568,-0.942 -3.707,-0.686 -6.049,-0.686 -6.734,0 -6.828,0.442 -13.983,-0.239 L 16.601,38.066 C 15.166,37.944 14.508,37.432 14.428,36.004 14.125,30.557 14.101,28.927 14.8,21.99 c 0.127,-1.256 0.608,-1.682 1.981,-1.75 4.772,-0.224 4.055,-0.228 8.832,-0.161 2.469,0.032 10.033,2.083 11.813,-0.149 l 0.025,-0.032 c 0.797,-1.001 0.517,-3.252 0.517,-3.252 C 37.469,12.551 38.692,8.883 38.271,4.701 38.031,2.232 37.247,1.457 34.779,1.246 20.576,0.002 14.504,0.994 0.318,0.012 0.211,0.004 0.104,0 0,0"
         style="fill:#231f20;fill-opacity:1;fill-rule:nonzero;stroke:none"
         transform="matrix(1.3333333,0,0,-1.3333333,711.45827,154.084)"
         clip-path="url(#clipPath12)" />
      <path
         id="path13"
         d="m 0,0 c 0.6,-0.067 1.377,-0.016 2.131,0.066 8.614,0.915 11.598,6.51 11.891,10.191 0.33,4.117 0.275,7.272 -1.2,10.791 -1.149,2.744 -4.086,4.189 -6.966,4.413 -0.708,0.054 -5.288,0.648 -6.71,0.116 -0.544,-0.204 -0.665,-1.594 -0.71,-2.931 C -1.652,20.055 -1.566,17.699 -1.593,15.137 -1.657,8.436 -2.018,4.441 -0.968,0.921 l 0.247,-0.578 c 0,0 0.364,-0.305 0.721,-0.343 m -19.44,-52.123 c -1.761,0.6 -2.007,0.963 -2.004,2.979 -0.003,2.078 0.333,10.881 0.333,10.881 0.134,2.64 0.434,4.244 0.434,4.244 0.048,2.386 0.099,3.332 0.152,4.329 1.031,19.799 0.822,31.757 0.92,51.582 0.016,3.556 -0.038,7.111 -0.153,10.666 -0.088,2.71 -0.176,5.421 -0.228,8.127 -0.02,0.839 0.007,1.071 0.08,1.273 l 0.112,0.315 0.289,0.164 c 0.048,0.03 0.331,0.152 0.556,0.245 l 0.178,0.073 c 2.2,0.88 4.531,1.304 7.14,1.304 l 0.79,-0.011 c 4.829,-0.152 9.726,-0.353 14.986,-0.614 6.044,-0.299 11.16,-1.47 15.634,-3.579 0.729,-0.341 1.454,-0.676 2.184,-1.005 l 0.317,-0.144 c 2.978,-1.671 5.59,-4.429 6.113,-5.054 0.384,-0.453 0.652,-0.77 0.904,-1.101 1.483,-1.933 2.122,-4.282 2.798,-6.77 l 0.341,-1.224 c 0.644,-2.286 0.943,-4.723 0.908,-7.453 -0.021,-1.679 0.058,-3.402 0.148,-5.01 0.274,-4.9 -0.57,-7.447 -2.404,-12.212 -1.627,-4.232 -4.969,-8.983 -8.453,-12.146 -4.567,-4.141 -9.574,-5.008 -15.442,-5.632 -1.066,-0.116 -2.039,-0.223 -2.875,-0.322 -0.707,-0.079 -1.374,-0.111 -2.236,-0.143 -0.603,-0.024 -1.151,-0.088 -1.703,-0.088 -2.033,0 -2.179,-0.666 -2.179,-0.666 -0.063,-0.464 -0.198,-3.063 -0.198,-3.063 0.043,-3.395 0.086,-9.706 0.139,-11.588 0.039,-1.341 0.091,-9.868 0.129,-11.439 0.037,-1.664 -0.084,-3.339 -0.202,-4.957 -0.047,-0.623 -0.218,-1.353 -1.148,-1.511 -0.214,-0.039 -0.32,-0.067 -0.398,-0.09 -0.221,-0.067 -0.35,-0.084 -0.653,-0.084 l -0.258,0.002 c -0.259,0.004 -0.513,0.017 -0.769,0.037 -0.836,0.066 -1.713,0.182 -2.485,0.285 l -0.234,0.029 c -2.189,0.274 -10.238,-1.099 -11.563,-0.629"
         style="fill:#231f20;fill-opacity:1;fill-rule:nonzero;stroke:none"
         transform="matrix(1.3333333,0,0,-1.3333333,343.6588,84.082134)"
         clip-path="url(#clipPath14)" />
      <path
         id="path15"
         d="m 0,0 c -7.116,5.617 -10.098,12.693 -12.135,20.811 -2.573,10.254 -2.435,17.677 -2.573,26.474 -0.05,3.165 0.552,7.052 0.874,10.163 1.25,11.737 5.036,18.152 10.397,24.338 3.647,4.208 6.041,5.786 11.958,8.66 2.426,1.177 8.116,2.002 10.784,2.044 7.841,0.121 15.097,-3.769 18.982,-10.629 1.401,-2.479 2.223,-4.987 2.512,-7.672 0.085,-0.762 0.174,-1.524 0.264,-2.285 0.447,-3.87 0.71,-9.936 0.707,-10.036 -0.075,-2.198 -0.323,-2.764 -2.444,-2.803 -4.301,-0.082 -10.547,0.516 -13.808,0.047 0,0 -0.661,-0.094 -0.797,0.799 -0.252,1.636 -0.363,3.84 -0.356,4.259 0.037,2.137 -0.926,5.071 -2.3,6.446 -1.694,1.694 -3.485,2.679 -5.291,2.712 -1.036,0 -2.01,-0.251 -3.1,-0.792 C 10.251,70.854 6.793,66.978 5.635,63.504 4.673,60.618 3.711,56.357 3.299,47.422 2.925,39.33 3.373,33.226 5.773,25.429 c 1.649,-5.361 4.123,-8.248 7.698,-8.934 5.607,-1.078 9.072,5.223 9.832,10.263 0.238,1.585 1.143,5.269 -2.231,5.145 -2.928,-0.111 -6.346,-2.539 -6.304,1.056 l -0.026,0.339 c -0.008,0.093 -0.012,0.187 -0.012,0.297 -0.021,2.551 0,5.242 0.02,7.564 l 0.009,1.108 c 0.003,0.675 0.007,1.315 0.077,1.903 0.379,3.043 2.24,2.857 4.777,2.925 3.779,0.104 7.545,0.432 11.307,0.797 1.848,0.179 3.715,0.301 5.559,0.539 3.621,0.473 4.304,-0.004 4.865,-3.668 0.389,-2.554 0.507,-5.206 0.377,-7.788 C 41.011,22.714 41.236,19.381 36.15,9.209 34.322,5.553 33.039,3.518 29.74,0.631 26.641,-2.082 25.137,-2.891 20.343,-4.262 16.494,-5.361 7.834,-6.186 0,0"
         style="fill:#231f20;fill-opacity:1;fill-rule:nonzero;stroke:none"
         transform="matrix(1.3333333,0,0,-1.3333333,250.61453,148.446)"
         clip-path="url(#clipPath16)" />
      <path
         id="path17"
         d="M 0,0 V -18.145 H -2.588 V 0 H -6.47 V 2.213 H 3.882 V 0 Z"
         style="fill:#231f20;fill-opacity:1;fill-rule:nonzero;stroke:none"
         transform="matrix(1.3333333,0,0,-1.3333333,405.12373,186.0424)"
         clip-path="url(#clipPath18)" />
      <path
         id="path19"
         d="M 0,0 C 0,0.691 -0.097,1.26 -0.288,1.703 -0.479,2.145 -0.729,2.502 -1.035,2.771 -1.343,3.041 -1.697,3.229 -2.1,3.334 -2.502,3.439 -2.904,3.492 -3.307,3.492 h -2.329 v -7.101 h 2.386 c 0.979,0 1.764,0.312 2.358,0.937 C -0.298,-2.047 0,-1.156 0,0 m 0.172,-14.709 -3.45,9.086 h -2.358 v -9.086 h -2.53 V 5.648 h 5.275 c 0.749,0 1.456,-0.099 2.12,-0.3 C -0.108,5.146 0.473,4.824 0.973,4.385 1.473,3.943 1.866,3.367 2.154,2.658 2.443,1.949 2.587,1.096 2.587,0.1 2.587,-0.725 2.48,-1.443 2.267,-2.057 2.054,-2.67 1.777,-3.193 1.437,-3.623 1.098,-4.055 0.726,-4.396 0.32,-4.645 -0.085,-4.895 -0.479,-5.057 -0.863,-5.133 l 3.824,-9.576 z"
         style="fill:#231f20;fill-opacity:1;fill-rule:nonzero;stroke:none"
         transform="matrix(1.3333333,0,0,-1.3333333,428.54813,190.62307)"
         clip-path="url(#clipPath20)" />
      <path
         id="path21"
         d="m 0,0 c -0.211,-0.902 -0.557,-1.693 -1.035,-2.373 -0.48,-0.68 -1.108,-1.217 -1.883,-1.609 -0.776,-0.393 -1.73,-0.59 -2.861,-0.59 -1.132,0 -2.075,0.197 -2.832,0.59 -0.758,0.392 -1.376,0.929 -1.855,1.609 -0.479,0.68 -0.82,1.471 -1.021,2.373 -0.201,0.9 -0.302,1.869 -0.302,2.904 v 13.369 h 2.588 V 3.162 c 0,-0.689 0.053,-1.355 0.158,-1.998 0.105,-0.643 0.287,-1.213 0.546,-1.711 0.259,-0.498 0.613,-0.896 1.064,-1.193 0.451,-0.297 1.021,-0.446 1.711,-0.446 0.69,0 1.255,0.149 1.697,0.446 0.44,0.297 0.791,0.695 1.049,1.193 0.259,0.498 0.441,1.068 0.546,1.711 0.106,0.643 0.159,1.309 0.159,1.998 V 16.273 H 0.316 V 2.904 C 0.316,1.869 0.211,0.9 0,0"
         style="fill:#231f20;fill-opacity:1;fill-rule:nonzero;stroke:none"
         transform="matrix(1.3333333,0,0,-1.3333333,456.2656,204.78974)"
         clip-path="url(#clipPath22)" />
      <path
         id="path23"
         d="m 0,0 c 0,-0.92 -0.145,-1.75 -0.432,-2.486 -0.288,-0.739 -0.675,-1.358 -1.165,-1.856 -0.488,-0.498 -1.068,-0.883 -1.739,-1.15 -0.671,-0.268 -1.39,-0.403 -2.156,-0.403 -1.035,0 -2.018,0.215 -2.947,0.647 -0.93,0.432 -1.673,1.002 -2.229,1.711 l 1.523,1.869 c 0.442,-0.574 0.993,-1.025 1.654,-1.352 0.662,-0.326 1.327,-0.488 1.999,-0.488 0.862,0 1.571,0.287 2.128,0.863 0.555,0.575 0.834,1.409 0.834,2.5 0,0.518 -0.087,0.973 -0.259,1.368 -0.173,0.392 -0.413,0.746 -0.72,1.062 -0.306,0.317 -0.656,0.606 -1.049,0.863 -0.393,0.26 -0.819,0.504 -1.28,0.733 -0.556,0.269 -1.078,0.57 -1.566,0.906 -0.49,0.336 -0.925,0.725 -1.309,1.164 -0.384,0.442 -0.685,0.965 -0.905,1.569 -0.221,0.603 -0.331,1.316 -0.331,2.142 0,0.977 0.153,1.83 0.46,2.559 0.306,0.728 0.714,1.332 1.222,1.81 0.507,0.479 1.087,0.834 1.74,1.065 0.651,0.23 1.312,0.345 1.983,0.345 0.979,0 1.856,-0.164 2.632,-0.49 0.776,-0.326 1.423,-0.814 1.94,-1.465 l -1.552,-1.841 c -0.729,0.959 -1.706,1.437 -2.933,1.437 -0.364,0 -0.724,-0.062 -1.078,-0.186 -0.356,-0.125 -0.676,-0.326 -0.964,-0.603 -0.287,-0.279 -0.518,-0.629 -0.689,-1.051 -0.173,-0.422 -0.259,-0.929 -0.259,-1.523 0,-0.518 0.081,-0.963 0.244,-1.338 C -7.041,8.008 -6.82,7.672 -6.542,7.375 -6.265,7.078 -5.943,6.811 -5.579,6.57 -5.215,6.33 -4.821,6.105 -4.399,5.895 -3.863,5.625 -3.336,5.324 -2.818,4.988 -2.301,4.652 -1.831,4.256 -1.409,3.795 -0.988,3.336 -0.647,2.793 -0.389,2.17 -0.13,1.547 0,0.824 0,0"
         style="fill:#231f20;fill-opacity:1;fill-rule:nonzero;stroke:none"
         transform="matrix(1.3333333,0,0,-1.3333333,478.96227,203.0268)"
         clip-path="url(#clipPath24)" />
      <path
         id="path25"
         d="M 0,0 V -18.145 H -2.588 V 0 H -6.47 V 2.213 H 3.882 V 0 Z"
         style="fill:#231f20;fill-opacity:1;fill-rule:nonzero;stroke:none"
         transform="matrix(1.3333333,0,0,-1.3333333,493.37627,186.0424)"
         clip-path="url(#clipPath26)" />
      <path
         id="path27"
         d="M 0,0 V -8.139 H -2.588 V 0 l -5.06,12.219 h 2.817 l 3.551,-9.574 3.637,9.574 h 2.761 z"
         style="fill:#231f20;fill-opacity:1;fill-rule:nonzero;stroke:none"
         transform="matrix(1.3333333,0,0,-1.3333333,527.57293,199.38347)"
         clip-path="url(#clipPath28)" />
      <path
         id="path29"
         d="M 0,0 C 0,1.148 -0.092,2.232 -0.273,3.248 -0.456,4.264 -0.724,5.146 -1.078,5.895 -1.434,6.641 -1.874,7.23 -2.401,7.662 -2.929,8.094 -3.537,8.309 -4.227,8.309 -4.937,8.309 -5.56,8.094 -6.096,7.662 -6.633,7.23 -7.078,6.641 -7.433,5.895 -7.788,5.146 -8.051,4.264 -8.224,3.248 -8.396,2.232 -8.482,1.148 -8.482,0 c 0,-1.15 0.086,-2.234 0.258,-3.25 0.173,-1.016 0.436,-1.898 0.791,-2.645 0.355,-0.748 0.8,-1.337 1.337,-1.769 0.536,-0.432 1.159,-0.647 1.869,-0.647 0.69,0 1.298,0.215 1.826,0.647 0.527,0.432 0.967,1.021 1.323,1.769 0.354,0.747 0.622,1.629 0.805,2.645 C -0.092,-2.234 0,-1.15 0,0 m 2.731,0 c 0,-1.592 -0.158,-3.045 -0.474,-4.357 -0.317,-1.313 -0.777,-2.44 -1.38,-3.379 -0.604,-0.94 -1.333,-1.668 -2.186,-2.186 -0.852,-0.517 -1.826,-0.775 -2.918,-0.775 -1.092,0 -2.07,0.258 -2.933,0.775 -0.862,0.518 -1.596,1.246 -2.199,2.186 -0.604,0.939 -1.064,2.066 -1.38,3.379 -0.317,1.312 -0.475,2.765 -0.475,4.357 0,1.59 0.153,3.043 0.46,4.355 0.307,1.313 0.757,2.434 1.352,3.364 0.593,0.929 1.327,1.648 2.199,2.158 0.872,0.506 1.864,0.762 2.976,0.762 1.092,0 2.066,-0.256 2.918,-0.762 C -0.456,9.367 0.273,8.648 0.877,7.719 1.48,6.789 1.94,5.668 2.257,4.355 2.573,3.043 2.731,1.59 2.731,0"
         style="fill:#231f20;fill-opacity:1;fill-rule:nonzero;stroke:none"
         transform="matrix(1.3333333,0,0,-1.3333333,554.94667,196.62307)"
         clip-path="url(#clipPath30)" />
      <path
         id="path31"
         d="m 0,0 c -0.211,-0.902 -0.557,-1.693 -1.035,-2.373 -0.48,-0.68 -1.108,-1.217 -1.883,-1.609 -0.776,-0.393 -1.73,-0.59 -2.861,-0.59 -1.132,0 -2.075,0.197 -2.832,0.59 -0.758,0.392 -1.376,0.929 -1.855,1.609 -0.479,0.68 -0.82,1.471 -1.021,2.373 -0.201,0.9 -0.302,1.869 -0.302,2.904 v 13.369 h 2.588 V 3.162 c 0,-0.689 0.053,-1.355 0.158,-1.998 0.105,-0.643 0.287,-1.213 0.546,-1.711 0.259,-0.498 0.613,-0.896 1.064,-1.193 0.451,-0.297 1.021,-0.446 1.711,-0.446 0.69,0 1.255,0.149 1.697,0.446 0.44,0.297 0.791,0.695 1.049,1.193 0.259,0.498 0.441,1.068 0.546,1.711 0.106,0.643 0.159,1.309 0.159,1.998 V 16.273 H 0.316 V 2.904 C 0.316,1.869 0.211,0.9 0,0"
         style="fill:#231f20;fill-opacity:1;fill-rule:nonzero;stroke:none"
         transform="matrix(1.3333333,0,0,-1.3333333,583.12493,204.78974)"
         clip-path="url(#clipPath32)" />
      <path
         id="path33"
         d="M 0,0 C 0,0.691 -0.097,1.26 -0.288,1.703 -0.479,2.145 -0.729,2.502 -1.035,2.771 -1.343,3.041 -1.697,3.229 -2.1,3.334 -2.502,3.439 -2.904,3.492 -3.307,3.492 h -2.329 v -7.101 h 2.386 c 0.979,0 1.764,0.312 2.358,0.937 C -0.298,-2.047 0,-1.156 0,0 m 0.172,-14.709 -3.45,9.086 h -2.358 v -9.086 h -2.53 V 5.648 h 5.275 c 0.749,0 1.456,-0.099 2.12,-0.3 C -0.108,5.146 0.473,4.824 0.973,4.385 1.473,3.943 1.866,3.367 2.154,2.658 2.443,1.949 2.587,1.096 2.587,0.1 2.587,-0.725 2.48,-1.443 2.267,-2.057 2.054,-2.67 1.777,-3.193 1.437,-3.623 1.098,-4.055 0.726,-4.396 0.32,-4.645 -0.085,-4.895 -0.479,-5.057 -0.863,-5.133 l 3.824,-9.576 z"
         style="fill:#231f20;fill-opacity:1;fill-rule:nonzero;stroke:none"
         transform="matrix(1.3333333,0,0,-1.3333333,604.44147,190.62307)"
         clip-path="url(#clipPath34)" />
      <path
         id="path35"
         d="M 0,0 V 20.357 H 8.568 V 18.059 H 2.501 V 11.646 H 8.166 V 9.488 H 2.501 V 2.33 H 8.855 V 0 Z"
         style="fill:#231f20;fill-opacity:1;fill-rule:nonzero;stroke:none"
         transform="matrix(1.3333333,0,0,-1.3333333,634.26827,210.23507)"
         clip-path="url(#clipPath36)" />
      <path
         id="path37"
         d="M 0,0 -6.498,15.787 H -6.585 V 0 h -2.386 v 20.357 h 3.106 L 0.546,4.543 H 0.633 V 20.357 H 3.02 V 0 Z"
         style="fill:#231f20;fill-opacity:1;fill-rule:nonzero;stroke:none"
         transform="matrix(1.3333333,0,0,-1.3333333,666.97,210.23507)"
         clip-path="url(#clipPath38)" />
      <path
         id="path39"
         d="M 0,0 V 20.357 H 8.568 V 18.059 H 2.501 V 11.646 H 8.166 V 9.488 H 2.501 V 2.33 H 8.855 V 0 Z"
         style="fill:#231f20;fill-opacity:1;fill-rule:nonzero;stroke:none"
         transform="matrix(1.3333333,0,0,-1.3333333,681.38547,210.23507)"
         clip-path="url(#clipPath40)" />
      <path
         id="path41"
         d="M 0,0 C 0,0.691 -0.097,1.26 -0.288,1.703 -0.479,2.145 -0.729,2.502 -1.035,2.771 -1.343,3.041 -1.697,3.229 -2.1,3.334 -2.502,3.439 -2.904,3.492 -3.307,3.492 h -2.329 v -7.101 h 2.386 c 0.979,0 1.764,0.312 2.358,0.937 C -0.298,-2.047 0,-1.156 0,0 m 0.172,-14.709 -3.45,9.086 h -2.358 v -9.086 h -2.53 V 5.648 h 5.275 c 0.749,0 1.456,-0.099 2.12,-0.3 C -0.108,5.146 0.473,4.824 0.973,4.385 1.473,3.943 1.866,3.367 2.154,2.658 2.443,1.949 2.587,1.096 2.587,0.1 2.587,-0.725 2.48,-1.443 2.267,-2.057 2.054,-2.67 1.777,-3.193 1.437,-3.623 1.098,-4.055 0.726,-4.396 0.32,-4.645 -0.085,-4.895 -0.479,-5.057 -0.863,-5.133 l 3.824,-9.576 z"
         style="fill:#231f20;fill-opacity:1;fill-rule:nonzero;stroke:none"
         transform="matrix(1.3333333,0,0,-1.3333333,713.01427,190.62307)"
         clip-path="url(#clipPath42)" />
      <path
         id="path43"
         d="m 0,0 c 1.093,0 2.061,-0.201 2.904,-0.605 0.843,-0.403 1.542,-1.016 2.099,-1.84 l -1.61,-1.754 c -0.422,0.613 -0.911,1.074 -1.467,1.381 -0.556,0.306 -1.159,0.459 -1.811,0.459 -0.787,0 -1.463,-0.219 -2.027,-0.661 -0.566,-0.441 -1.04,-1.041 -1.424,-1.796 -0.384,-0.758 -0.666,-1.639 -0.848,-2.647 -0.182,-1.006 -0.273,-2.064 -0.273,-3.176 0,-1.17 0.101,-2.257 0.302,-3.263 0.201,-1.008 0.498,-1.879 0.891,-2.618 0.393,-0.738 0.887,-1.318 1.481,-1.74 0.594,-0.422 1.294,-0.633 2.099,-0.633 1.074,0 1.888,0.231 2.444,0.692 v 6.297 H 0.086 v 2.242 h 5.176 v -9.92 c -0.595,-0.498 -1.289,-0.897 -2.085,-1.193 -0.796,-0.297 -1.769,-0.446 -2.918,-0.446 -1.17,0 -2.214,0.254 -3.135,0.762 -0.92,0.508 -1.701,1.223 -2.343,2.143 -0.642,0.92 -1.132,2.031 -1.467,3.336 -0.335,1.302 -0.502,2.75 -0.502,4.341 0,1.534 0.162,2.948 0.488,4.241 0.326,1.294 0.796,2.416 1.409,3.363 0.613,0.949 1.366,1.693 2.257,2.228 C -2.143,-0.27 -1.132,0 0,0"
         style="fill:#231f20;fill-opacity:1;fill-rule:nonzero;stroke:none"
         transform="matrix(1.3333333,0,0,-1.3333333,733.79293,182.43827)"
         clip-path="url(#clipPath44)" />
      <path
         id="path45"
         d="M 0,0 V -8.139 H -2.588 V 0 l -5.06,12.219 h 2.817 l 3.551,-9.574 3.637,9.574 h 2.761 z"
         style="fill:#231f20;fill-opacity:1;fill-rule:nonzero;stroke:none"
         transform="matrix(1.3333333,0,0,-1.3333333,756.4896,199.38347)"
         clip-path="url(#clipPath46)" />
      <path
         id="path47"
         d="m 0,0 c 0,-0.5 -0.158,-0.912 -0.475,-1.238 -0.316,-0.324 -0.704,-0.489 -1.164,-0.489 -0.461,0 -0.843,0.165 -1.15,0.489 -0.307,0.326 -0.46,0.738 -0.46,1.238 0,0.479 0.153,0.891 0.46,1.236 0.307,0.344 0.689,0.518 1.15,0.518 0.46,0 0.848,-0.174 1.164,-0.518 C -0.158,0.891 0,0.479 0,0"
         style="fill:#231f20;fill-opacity:1;fill-rule:nonzero;stroke:none"
         transform="matrix(1.3333333,0,0,-1.3333333,769.9076,208.2012)"
         clip-path="url(#clipPath48)" />
    </g>
  </g>
</svg>
