<?xml version="1.0" encoding="UTF-8" standalone="no"?>
<!-- Created with Inkscape (http://www.inkscape.org/) -->

<svg
   version="1.1"
   id="svg1"
   width="793.70135"
   height="226.772"
   viewBox="0 0 793.70135 226.772"
   sodipodi:docname="Logo_Kreis_Schleswig-Flensburg.svg"
   inkscape:version="1.3.2 (091e20e, 2023-11-25, custom)"
   xmlns:inkscape="http://www.inkscape.org/namespaces/inkscape"
   xmlns:sodipodi="http://sodipodi.sourceforge.net/DTD/sodipodi-0.dtd"
   xmlns="http://www.w3.org/2000/svg"
   xmlns:svg="http://www.w3.org/2000/svg">
  <defs
     id="defs1" />
  <sodipodi:namedview
     id="namedview1"
     pagecolor="#ffffff"
     bordercolor="#000000"
     borderopacity="0.25"
     inkscape:showpageshadow="2"
     inkscape:pageopacity="0.0"
     inkscape:pagecheckerboard="0"
     inkscape:deskcolor="#d1d1d1"
     inkscape:zoom="2.4535325"
     inkscape:cx="319.33549"
     inkscape:cy="178.72191"
     inkscape:window-width="3840"
     inkscape:window-height="2054"
     inkscape:window-x="4309"
     inkscape:window-y="-11"
     inkscape:window-maximized="1"
     inkscape:current-layer="g1">
    <inkscape:page
       x="0"
       y="0"
       inkscape:label="1"
       id="page1"
       width="793.70135"
       height="226.772"
       margin="0"
       bleed="0"
       inkscape:export-filename="BO_Nahwärme-Logo_Vektor.png"
       inkscape:export-xdpi="500"
       inkscape:export-ydpi="500" />
  </sodipodi:namedview>
  <g
     id="g1"
     inkscape:groupmode="layer"
     inkscape:label="1">
    <g
       id="g2"
       transform="matrix(1.2053427,0,0,1.2053427,-77.716052,-23.282988)">
      <g
         id="Base"
         transform="translate(306.13634,18.635977)">
	<path
   fill="#0047ab"
   stroke="#000000"
   stroke-width="2.5"
   d="M 173.824,1.25 H 1.25 v 112.667 c 0,0 2.728,15.427 12.708,32.226"
   id="path1" />

	<path
   fill="#fff200"
   stroke="#000000"
   stroke-width="2.5"
   d="m 13.958,146.143 c 11.829,19.909 33.85,41.746 73.625,42.107 73.334,-0.667 86.333,-74.333 86.333,-74.333 V 1.25 h -0.092"
   id="path2" />

	<polygon
   fill="none"
   stroke="#000000"
   stroke-width="0.75"
   points="173.824,1.25 13.083,146.935 "
   id="polygon2" />

</g>
      <g
         id="Blauer_x2C__mit_zwei_silbernen_Wellenfäden_belegter_Wellenschildfuß"
         transform="translate(306.13634,18.635977)">
	<path
   fill="#0047ab"
   stroke="#000000"
   stroke-width="0.5"
   d="m 111.116,159.585 c -11.854,0 -11.854,-4 -23.708,-4 -11.854,0 -11.854,4 -23.708,4 -11.854,0 -11.854,-4 -23.708,-4 -9.021,0 -11.181,2.315 -16.921,3.423 13,15.435 33.281,28.959 64.512,29.242 31.191,-0.283 51.463,-13.775 64.467,-29.186 -5.97,-1.083 -8.046,-3.479 -17.225,-3.479 -11.854,0 -11.854,4 -23.709,4 z"
   id="path3" />

	<path
   fill="#ffffff"
   stroke="#000000"
   stroke-width="0.5"
   d="m 111.116,180.935 c -11.854,0 -11.854,-4 -23.708,-4 -11.854,0 -11.854,4 -23.708,4 -10.098,0 -11.599,-2.901 -19.148,-3.761 5.13,2.971 10.846,5.487 17.201,7.371 0.613,0.025 1.258,0.04 1.947,0.04 11.854,0 11.854,-4 23.708,-4 11.854,0 11.854,4 23.708,4 0.848,0 1.628,-0.022 2.363,-0.061 6.358,-1.891 12.074,-4.417 17.207,-7.396 -7.918,0.798 -9.287,3.807 -19.57,3.807 z"
   id="path4" />

	<path
   fill="#ffffff"
   stroke="#000000"
   stroke-width="0.5"
   d="m 134.825,164.435 c -11.854,0 -11.854,4 -23.709,4 -11.854,0 -11.854,-4 -23.708,-4 -11.854,0 -11.854,4 -23.708,4 -11.854,0 -11.854,-4 -23.708,-4 -4.96,0 -7.843,0.701 -10.389,1.516 1.003,0.954 2.042,1.892 3.114,2.812 1.9,-0.403 4.182,-0.677 7.275,-0.677 11.854,0 11.854,4 23.708,4 11.854,0 11.854,-4 23.708,-4 11.854,0 11.854,4 23.708,4 11.854,0 11.854,-4 23.709,-4 3.249,0 5.604,0.302 7.561,0.737 1.065,-0.912 2.102,-1.84 3.1,-2.786 -2.615,-0.851 -5.525,-1.602 -10.661,-1.602 z"
   id="path5" />

</g>
      <g
         id="Rot_bewehrten_Löwe"
         transform="translate(306.13634,18.635977)">
	<g
   id="g67">
		<path
   fill="#ed1c24"
   stroke="#000000"
   stroke-width="0.5"
   d="m 42.989,18.531 c 0,0 -6.75,-1.313 -9.375,-0.406 0,0 -2.844,0.719 -4.313,-1.188 -0.688,-1.125 -0.938,-2.906 1.656,-3.75 -3.156,0.75 -6,1.844 -3.844,5.188 0.875,1.406 1.875,2.219 5.563,1.188 1.219,-0.281 3.813,-0.719 5.719,-0.438 1.813,0.281 4.844,0.906 4.844,0.906 z"
   id="path6" />

		<path
   fill="#fff200"
   d="m 55.083,34.625 c 0,0 7.5,-2.125 16.25,-1.375 7.875,0.875 11.625,1.75 15.125,1.375 3.5,-0.375 7.375,-2 7,-4.75 -0.5,-2 -1.75,-3.25 -4.625,-3.25 -1.5,0 -17.75,-0.625 -22.625,2.5 1.375,-1.125 1.625,-1.75 1.125,-1.875 -0.5,-0.125 -2.75,1.125 -3.875,1.375 1,-0.875 1.625,-1.875 0.625,-1.875 -1,-0.25 -4.875,-2.25 -4.625,-6.125 0.625,-4.5 1.625,-5.25 6.125,-6.375 3.375,-0.25 7.125,0.75 8.875,1.125 2.375,0 5.25,0.25 3.75,-4.125 1.75,0.5 2.125,2.625 1.5,4.375 1.375,0.625 3.5,1 5.75,-1.5 0.5,-1.375 0.5,-1.625 -0.25,-3.25 1.875,1.125 2.875,3.125 1.125,5.25 1.625,0.375 5.25,0 6.5,-1.5 1.75,-1.75 3.25,-3.625 6.5,-3.25 -3.375,1.625 -4,2 -5.125,5.75 -1.125,1.5 -4.125,3.125 -5.875,3.125 -2.5,0.125 -6.875,-0.25 -13.5,-2.625 -6.625,-2.375 -13.375,-2.5 -13.25,2.375 0.75,3 1,5 8.625,4.75 7.625,-0.25 18.625,-0.375 18.625,-0.375 0,0 4.125,-0.75 4.875,-0.75 V 25 c 0,0 3.875,-0.625 4.5,-0.5 -0.5,0.875 -1.5,1.875 -2.625,2.125 1,0.375 1.875,0.875 3,0.375 -0.5,0.625 -2.375,1.125 -2.375,1.625 1.125,0.625 1.625,0.5 2.25,0.375 -0.375,0.75 -0.75,1.125 -1.75,1.375 -0.125,0.75 -0.75,4.75 -4.125,5.875 -3.375,1.125 -8.875,1.375 -9.375,1.375 -0.25,1.5 0,3.125 0,3.125 0,0 1.875,1.125 2,1.875 0.125,0.75 1,2.5 0.875,3.375 1.75,0.625 2.375,0.5 3,1.25 0.625,-0.125 1.25,-0.25 2.125,0.25 1.375,-0.125 4.75,0.125 5.25,-0.125 0.5,-0.25 1.375,-1.25 1.75,-1.375 0.375,-0.125 1.375,-0.25 2,-0.25 0,0 -1.5,2.375 -1.563,3.375 -1,0.75 -1,0.563 -1.75,0.563 -0.688,0.5 -0.875,0.563 -0.938,1.188 0.938,0.25 2.813,0.313 3.375,-0.188 -0.063,0.75 -1.563,1.813 -2.313,2.063 -0.75,0.563 -0.688,0.75 -1,1.5 1,0 2.688,-0.625 3.313,-1.25 -0.063,0.625 -1.063,2.313 -3.625,2.75 -0.313,0.688 -0.438,1.313 -0.438,1.313 0,0 1.75,0.375 2.625,-0.75 0,1.063 -0.625,2 -2.25,2.25 -0.563,0.313 -0.875,0.625 -0.938,1.188 0.688,0.313 0.375,0.5 1.063,0.063 -0.625,0.75 -1.188,1.813 -1.5,2.375 -0.25,0.813 -0.313,1.188 -0.313,1.188 l -0.938,-0.625 c 0,0 -1,2.5 -2.625,2.75 -1.25,0.063 -2.313,-1.375 -2.5,-0.938 -0.188,0.5 -0.75,1.063 -0.375,1.625 0,0 -1,-0.625 -0.969,-1.563 -0.531,0.656 -2.094,1.844 -4.281,-0.063 -0.406,0.5 -0.469,0.406 -0.469,0.906 -0.469,-1.063 -0.375,-2.469 0.813,-3.438 -0.094,-0.656 -0.781,-2.75 2.156,-3.594 0.813,-0.188 1.531,-0.031 3.063,0.813 0.656,0.063 1.125,-0.406 1.219,-0.531 0.094,-0.125 -0.469,-3.469 -1.156,-4.094 -0.563,-0.375 -5.938,-2.469 -5.938,-2.469 0,0 -0.625,-0.219 -0.5,0.625 0.156,0.688 0.188,3.219 -0.969,4.125 -0.469,-1.406 -1.875,-5.188 -2.094,-5.438 0.625,1.594 1.781,3.656 -1.063,7.188 0,0 1.531,-4.5 -4,-9.031 -1.469,0.719 -4.188,2.906 -5.313,6.75 0,0.875 -0.156,1.094 0.844,1.25 0.938,0.313 1.531,0.313 2.094,0.094 0,0 1.406,-0.031 2.406,0.406 -1.281,0.563 -3.125,1.313 -4.656,0.938 -0.531,-0.156 -1.188,-0.625 -1.594,0.188 -0.219,0.594 -0.5,1.031 0.75,1.125 0.906,0.219 0.875,0.188 1.469,0.594 0.844,0.188 0.813,0.25 1.406,0.156 0,0 -0.188,1.281 -2.031,1.063 -1.344,-0.5 -1.156,-0.469 -1.938,-0.719 -1.188,-0.156 -2.563,-0.031 -1.531,0.813 0.906,0.219 0.969,0.031 1.313,0.594 -0.188,0.531 -1.344,0.656 -2.031,0.719 -0.844,0.094 -1.281,0.188 -1.656,-0.219 -0.594,-0.719 -1.563,-0.875 -1.531,0.031 0.313,0.344 0.406,0.344 1.125,0.563 -0.656,0.438 -1.813,0.313 -2.406,-0.031 -0.594,-0.219 -1.375,-0.094 -0.938,0.656 0.188,0.5 0.031,0.5 0.25,0.719 -0.75,-0.094 -2.438,-0.813 -2.531,-1.156 -0.094,-0.469 -0.125,-0.625 -0.031,-0.875 0,0 -1.125,1.375 -1.406,1.719 -0.938,0.031 -1.031,0.188 -1.188,-0.188 -0.157,-0.376 -0.719,-1.125 -0.719,-1.125 0,0 -1.688,1.625 -3.594,1.563 -1.813,-0.344 -1.938,-0.563 -2.25,-1.125 -0.594,0.156 -1.438,0.656 -1.406,1.406 -0.281,-0.563 -0.406,-0.656 -0.375,-1.219 -0.625,-0.125 -0.969,-0.188 -1.25,-0.688 0,0 -1.125,0.063 -0.844,0.844 -0.875,-1 -1.531,-3.094 1.938,-4.281 1.281,-0.25 1.563,-0.406 1.688,-0.438 -0.156,-0.531 -0.313,-1 -0.063,-1.219 -0.563,0.156 -1.438,0.688 -1.875,1.125 -0.219,-0.469 0.094,-1.875 2.281,-2.75 1.594,0.531 2.906,0.656 3.813,2.5 0,0 5.5,0.5 8.844,-4.375 0.031,-0.344 0.156,-0.563 -0.438,-0.469 -0.594,0.188 -3.344,-0.094 -4.875,0.156 0.625,-0.563 0.813,-1.031 1.75,-1.094 0.875,-0.281 1.938,-0.594 2.281,-1.094 -1.125,-0.156 -2.375,-0.156 -3,0.125 -0.844,0.188 -1.438,0.344 -1.906,-0.031 -0.563,-0.375 -1.375,-0.75 -1.813,-0.594 0.75,-0.375 1.188,-1.063 2.5,-0.906 1.219,0.063 4,0.563 6.25,-1.781 0,0 4.656,-4.427 9.938,-4.427 -0.125,-1.031 -0.531,-0.729 -0.406,-1.292 0,0 -9.469,0.875 -14.031,3 -4.375,1.563 -12.125,3.688 -17,1.938 0.438,1 0.188,0.938 0.813,1.438 0.875,0.438 2.125,0.25 2.375,1.125 -1.438,0.438 -1.938,-0.25 -2.938,0.375 -1.375,-0.313 -1.625,0.5 -2.75,-1.063 -0.875,0.5 -1.125,0.75 -1.125,0.75 0,0 0.752,0.81 1.314,1.81 0.813,0.125 2.125,0.125 2.188,0.438 -0.188,0.563 -0.688,1.063 -1.375,1 -1.25,-0.563 -4.188,-1.688 -4.625,-0.625 0.75,0.563 1.188,0.625 1.313,1.25 1,0.25 1.625,0.188 1.875,0.438 -0.125,0.625 -1.188,0.188 -1.438,0.625 -1.063,-0.063 -2.875,-0.813 -3.875,-0.188 1.125,1.063 2,1.938 2.5,1.688 0,0 -1.313,1 -2.938,0.375 -0.875,-0.438 -2.063,-0.5 -1.938,0.625 0.563,0.688 0.5,1.063 1.125,1.063 -0.813,0.438 -2.188,0.688 -2.5,-0.125 -0.438,0.375 -0.438,1.313 0.375,1.813 -0.813,0.313 -1.563,0.125 -2.438,-0.563 -0.563,0.75 -1.438,1.563 -1.875,1.25 -0.438,-0.438 -0.438,-0.438 -0.438,-0.438 0,0 0.125,1.563 -0.438,1.875 -0.625,0.5 -2.5,1.313 -2.5,1.313 0,0 0.5,-0.563 0.188,-1.75 -0.25,0.938 -1.063,2.875 -3.438,2.813 -1.063,-0.063 -1.063,0.125 -1.75,-0.625 -0.313,0.5 -0.813,1.625 -0.063,2.375 -0.813,-0.5 -1.5,-0.438 -1.688,-2 -0.813,0.063 -2.313,0.125 -3.188,-1 -0.438,0.813 -0.938,0.75 -0.188,1.563 -0.813,-0.25 -2.625,-0.875 -1.125,-3.375 0.875,-0.875 0.875,-1.25 1.938,-1.25 0.063,-0.75 -0.25,-0.688 -0.25,-0.688 0,0 -1.375,-0.313 -1,-1.563 0.875,-1.25 1.938,-2.063 3.938,-1.25 1.813,0.563 3,1.5 6.313,-0.313 3.5,-2.313 8.25,-8.063 8.813,-10.688 -0.75,0.125 -2.125,0.125 -2.313,1.25 0.063,-1.375 0.063,-3.375 0.25,-4.188 -0.875,1.375 -1.438,1.563 -1.5,2.563 -0.438,-1.625 -0.438,-1.813 -0.375,-3 -0.063,-1.25 -0.25,-1.813 -0.563,-2.563 -0.5,1.688 -0.438,2.313 -0.938,3 -0.438,-1.313 -0.938,-3.875 -0.875,-4.75 -0.75,-0.5 -1.688,-0.813 -1.688,-0.813 0,0 -0.5,1.188 -0.313,2 -0.938,-1.938 -1.625,-4.438 -1.563,-5.063 -0.313,0.938 -0.688,1.75 -0.688,1.75 L 17.39,32.561 c 0,0 -1.063,0.5 -1.25,-0.625 -0.188,-1.375 -0.063,-1.688 -0.313,-1.938 -0.25,-0.25 -1.75,1.125 -2.875,-0.25 0.813,-0.5 0.813,-0.688 1.438,-0.25 0,0 -2.438,-1.438 -0.375,-3.5 -2.125,-0.375 -3.25,-0.875 -3.313,-1.625 -0.625,0.438 -0.875,0.375 -0.875,1.125 -0.25,-1.188 0.188,-3.375 1.938,-3.688 0,-1.25 -0.25,-2.375 1.438,-3.438 -0.75,-0.25 -1.813,-0.813 -2.5,0.063 1.75,-1.375 3,-2.438 4.5,-0.875 0.75,1.125 1.188,1.25 1.313,2.063 0.875,-0.563 1.625,-1 1.625,-1 0,0 0.25,-0.563 -1.063,-1.063 1.188,-0.438 2.75,0.063 3.125,1.625 0.188,0.875 -0.188,3.25 -0.688,4.25 -0.188,1.125 -0.125,1.875 0.5,2.875 0.625,1 5.25,6.75 5.25,6.75 0,0 1.125,0.875 1.25,-0.25 -0.313,-1.063 -0.438,-1.25 -1.063,-1.688 0,0 1.083,-0.25 2.625,1.375 0.417,0.375 1.625,0.667 3.208,-0.375 C 30.917,31.542 28.833,31 28,31.417 c 0.417,-0.792 0.458,-1.166 0.667,-1.458 0.417,-0.292 1.333,-0.917 1.958,-0.917 -0.667,-0.625 -1.209,-1.542 -1.917,-1.5 1.833,-0.125 1.625,-0.333 2.792,-0.042 1.208,0.042 2,-0.167 2.292,-1 -0.833,-0.875 -2.042,-1.458 -3.333,-1.25 0.708,-1.083 2.459,-1.042 4.042,-0.625 1.708,0.083 3.708,0 4.583,-1.75 -0.833,-0.125 -2.208,-0.333 -2.333,-1.292 0.292,-0.917 0.375,-0.834 1.917,-0.792 C 40.46,20.583 42.71,21 42.626,19.333 41.959,17.541 40.834,16 38.668,15.958 c -2.166,-0.042 -2.542,-0.042 -2.542,-0.042 0,0 -0.751,0.084 -0.834,-1.166 0.042,-1.458 0.292,-2.25 0.375,-2.542 0.083,-0.292 0.208,-1.083 1.375,-1.083 l 1.375,-0.083 c 0,0 0.25,0 0.458,0.083 0.208,0.083 2.458,-0.25 2.792,-0.458 0.334,-0.208 2.042,-0.083 2.042,-0.083 0,0 1.333,-1 2.958,-0.667 0,0 2.083,0.75 3.708,0.375 0.75,-0.208 1.75,-0.167 2.292,-0.042 0.708,0.458 1.042,1.125 0.208,3 0.417,0.958 0.917,4.125 1.75,5.375 -1.292,-0.292 -1.25,-0.083 -1.667,-0.458 -0.125,0.667 0.167,3.25 0.875,4.375 0.292,0.542 0.625,0.792 -0.25,0.917 -0.625,-0.042 -0.833,0.042 -1.125,-0.75 0,1.042 -0.125,2.625 1.208,3.917 0.334,0.624 0.751,0.874 0.084,1.166 -0.625,0.083 -0.583,0.334 -1.458,0.042 0.167,1 0.375,2.75 3.25,2.875 -0.458,0.75 -1.958,2.708 -3.292,2.833 1.083,0.875 1.125,1.041 2.833,1.083 z"
   id="path7" />

		<path
   fill="#ed1c24"
   d="m 20.617,63.733 c 0.02,0.726 -0.284,1.079 -0.284,1.079 0,0 1.875,-0.813 2.5,-1.313 0.258,-0.144 0.368,-0.55 0.415,-0.948 -0.595,-0.043 -1.959,0.012 -2.631,1.182 z"
   id="path8" />

		<path
   fill="#ed1c24"
   d="m 9.771,59.313 c -0.375,1.25 1,1.563 1,1.563 0,0 0.062,-0.009 0.125,0.044 l 0.021,-0.002 c 0,0 -1.083,-2.166 2.875,-2.583 0.197,-0.021 0.369,-0.041 0.537,-0.061 -0.201,-0.072 -0.406,-0.144 -0.62,-0.21 -2.001,-0.814 -3.063,-10e-4 -3.938,1.249 z"
   id="path9" />

		<path
   fill="#ed1c24"
   d="m 11.021,61.563 c -1.063,0 -1.063,0.375 -1.938,1.25 -1.5,2.5 0.313,3.125 1.125,3.375 -0.75,-0.813 -0.25,-0.75 0.188,-1.563 0.068,0.088 0.147,0.157 0.223,0.231 0.205,-1.068 0.639,-3.122 1.007,-3.397 0.21,-0.158 -0.14,-0.249 -0.615,-0.301 0.017,0.097 0.024,0.227 0.01,0.405 z"
   id="path10" />

		<path
   fill="#ed1c24"
   d="m 15.271,67.625 c -0.75,-0.75 -0.25,-1.875 0.063,-2.375 0.004,0.005 0.007,0.007 0.012,0.012 l 0.092,-2.012 -0.667,0.646 -0.458,0.563 -0.458,0.75 -0.223,0.681 c 0.233,1.275 0.878,1.267 1.639,1.735 z"
   id="path11" />

		<path
   fill="#ed1c24"
   d="m 47.427,62.563 c -0.625,-0.156 -0.781,0.75 -0.781,0.75 l -0.778,1.167 c 0.005,0.408 0.125,0.556 0.372,1.051 -0.031,-0.75 0.813,-1.25 1.406,-1.406 0.03,0.054 0.058,0.102 0.085,0.149 0.064,-0.389 0.219,-1.581 -0.304,-1.711 z"
   id="path12" />

		<path
   fill="#ed1c24"
   d="m 45.458,59.656 c 0.438,-0.438 1.313,-0.969 1.875,-1.125 -0.082,0.071 -0.109,0.177 -0.119,0.295 l 0.056,-0.045 1.312,-1.611 c -0.272,-0.083 -0.551,-0.167 -0.843,-0.264 -2.187,0.875 -2.5,2.282 -2.281,2.75 z"
   id="path13" />

		<path
   fill="#ed1c24"
   d="m 43.771,64.469 c -0.281,-0.781 0.844,-0.844 0.844,-0.844 0.014,0.024 0.03,0.036 0.044,0.059 0.213,-0.993 0.742,-3.064 1.519,-3.559 0.029,-0.019 0.045,-0.033 0.071,-0.051 -0.159,0.036 -0.332,0.073 -0.54,0.113 -3.47,1.188 -2.813,3.282 -1.938,4.282 z"
   id="path14" />

		<path
   fill="#ed1c24"
   d="m 82.614,62.031 c -1.188,0.969 -1.281,2.375 -0.813,3.438 0,-0.5 0.063,-0.406 0.469,-0.906 0.061,0.053 0.12,0.095 0.18,0.144 0.3,-0.937 0.833,-2.759 0.445,-2.79 -0.521,-0.042 0.646,-0.313 0.646,-0.313 0,0 0.67,-2.203 1.554,-3.221 -0.108,0.012 -0.216,0.029 -0.325,0.055 -2.937,0.843 -2.249,2.937 -2.156,3.593 z"
   id="path15" />

		<path
   fill="#ed1c24"
   d="m 87.396,63.333 c -0.5,-0.104 -0.771,1.146 -0.771,1.146 l -0.065,0.225 c 0.026,0.892 0.961,1.484 0.961,1.484 -0.375,-0.563 0.188,-1.125 0.375,-1.625 0.047,-0.109 0.148,-0.102 0.294,-0.029 -0.225,-0.546 -0.526,-1.144 -0.794,-1.201 z"
   id="path16" />

		<path
   fill="#ed1c24"
   d="m 11.154,18.088 c 0.542,-0.254 1.19,-0.027 1.741,0.176 l 0.021,-0.014 c 0,0 1.523,-1.192 2.36,-0.59 -0.023,-0.034 -0.044,-0.061 -0.068,-0.097 -1.369,-1.427 -2.531,-0.665 -4.054,0.525 z"
   id="path17" />

		<path
   fill="#ed1c24"
   d="m 17.083,17.563 c 0.77,0.293 0.997,0.605 1.057,0.815 0.082,0.012 1.655,0.265 2.11,1.182 -0.007,-0.141 -0.021,-0.268 -0.042,-0.372 -0.375,-1.563 -1.937,-2.063 -3.125,-1.625 z"
   id="path18" />

		<path
   fill="#ed1c24"
   d="m 9.833,25.5 c 0,-0.75 0.25,-0.688 0.875,-1.125 0.01,0.124 0.061,0.239 0.128,0.35 l -0.128,-0.391 c 0,0 0.417,-1.25 1.458,-1.25 1.041,0 0.625,-1.25 0.625,-1.25 l -1.025,-0.277 c 10e-4,0.085 0.004,0.17 0.004,0.256 -1.749,0.312 -2.187,2.5 -1.937,3.687 z"
   id="path19" />

		<path
   fill="#ed1c24"
   d="m 16.625,29.042 c 0.25,0 0.166,-1 -0.417,-0.917 -0.563,0.081 -1.97,1.125 -2.065,1.195 0.067,0.053 0.124,0.095 0.167,0.124 0.029,0.019 0.053,0.033 0.085,0.056 0,0 -0.034,-0.021 -0.085,-0.056 -0.075,-0.05 -0.143,-0.089 -0.202,-0.118 L 14.003,29.28 c -0.29,-0.093 -0.449,0.103 -1.045,0.47 1.125,1.375 2.625,0 2.875,0.25 0.004,0.004 0.006,0.009 0.01,0.013 l 0.032,-0.054 c 0,-0.001 0.5,-0.917 0.75,-0.917 z"
   id="path20" />

		<path
   fill="none"
   stroke="#000000"
   stroke-width="0.4"
   d="m 88.396,36.375 c 0,0 0.063,0.688 -7.813,0.563 0.25,2.188 0.438,3 0.313,3.5 0.938,0.75 2.75,1.813 2.938,5.813"
   id="path21" />

		<path
   fill="none"
   stroke="#000000"
   stroke-width="0.4"
   d="m 82.614,62.031 c 0,0 2.781,-1.281 4.031,-1.531"
   id="path22" />

		<path
   fill="none"
   stroke="#000000"
   stroke-width="0.4"
   d="m 86.708,64.25 c 0,0 1.063,-1.938 2.938,-3.063"
   id="path23" />

		<path
   fill="none"
   stroke="#000000"
   stroke-width="0.4"
   d="m 94.521,48.125 c 0,0 0.75,0.688 0.438,1.688 -0.313,1.063 -0.375,1.625 -0.375,1.625"
   id="path24" />

		<line
   fill="none"
   stroke="#000000"
   stroke-width="0.4"
   x1="93.333"
   y1="56.688"
   x2="94.146004"
   y2="53.813"
   id="line24" />

		<line
   fill="none"
   stroke="#000000"
   stroke-width="0.4"
   x1="95.333"
   y1="56.813"
   x2="94.271004"
   y2="58.188"
   id="line25" />

		<path
   fill="none"
   stroke="#000000"
   stroke-width="0.4"
   d="m 89.083,47.25 c 0,0 0.875,0.75 1,1.5 1.188,0.5 1.75,0.5 1.75,0.5 0,0 1.125,0.625 0.938,1.563 -0.187,0.938 -0.563,6.25 -0.563,6.25"
   id="path25" />

		<line
   fill="none"
   stroke="#000000"
   stroke-width="0.4"
   x1="92.646004"
   y1="52.063"
   x2="89.396004"
   y2="51.938"
   id="line26" />

		<path
   fill="none"
   stroke="#000000"
   stroke-width="0.4"
   d="M 88.083,51.625 84.52,51.75 c 0,0 -1.563,-0.875 -2.313,-1.125 -0.875,0.188 -2.438,0.188 -4.438,-0.313 -1.938,-0.75 -4.938,-2.625 -6.188,-4.75 -0.906,-1.938 -0.688,-2.375 -0.063,-3.625 0.875,-1.375 3,-2.563 1.188,-4.125"
   id="path26" />

		<line
   fill="none"
   stroke="#000000"
   stroke-width="0.4"
   x1="47.396"
   y1="59.75"
   x2="50.083"
   y2="59.75"
   id="line27" />

		<path
   fill="none"
   stroke="#000000"
   stroke-width="0.4"
   d="m 45.864,64.313 c 0,0 1.156,-2.375 3.594,-2.75 1.438,-0.188 3.438,0.188 4.688,-1.063"
   id="path27" />

		<line
   fill="none"
   stroke="#000000"
   stroke-width="0.4"
   x1="58.521"
   y1="62.25"
   x2="61.708"
   y2="60.688"
   id="line28" />

		<path
   fill="none"
   stroke="#000000"
   stroke-width="0.4"
   d="m 59.333,52.313 c 0,0 1,-0.313 1.563,0"
   id="path28" />

		<path
   fill="none"
   stroke="#000000"
   stroke-width="0.4"
   d="m 64.208,49.25 c 0,0 1.875,-1.375 2.688,-1.688"
   id="path29" />

		<path
   fill="none"
   stroke="#000000"
   stroke-width="0.4"
   d="m 63.958,52.188 c -1,0.125 -3.438,2.625 -3.438,2.625 l -0.125,0.219 c 0,0 1.25,0.781 2.625,-0.094 0,0 2.188,-1.016 2.625,-2.313 1.25,-1.375 1.938,-1.188 2.313,-1.438"
   id="path30" />

		<path
   fill="none"
   stroke="#000000"
   stroke-width="0.4"
   d="m 64.896,53.938 c 0,0 -0.438,0.938 1.25,2.25"
   id="path31" />

		<path
   fill="none"
   stroke="#000000"
   stroke-width="0.4"
   d="m 70.833,49.313 c 0,0 -4.75,3.563 -4.875,8.438 -0.125,0.75 -0.25,0.75 -0.625,1 -0.563,0.375 -2.5,1.063 -2.5,1.063"
   id="path32" />

		<path
   fill="none"
   stroke="#000000"
   stroke-width="0.4"
   d="m 26.146,33.625 c 0,0 1.25,1.688 3.125,1.625 -0.688,0.75 -3.375,3.813 -5.5,3.938 1.25,0.188 5.063,-0.313 6.938,-2.125 -3.375,2.25 -4.438,2.875 -5.375,2.938 1,0.438 3.188,1.5 5.125,0.063 1.5,-1.063 3.25,-2.625 4.875,-2.75"
   id="path33" />

		<path
   fill="none"
   stroke="#000000"
   stroke-width="0.4"
   d="m 29.021,40.688 c 0,0 -0.5,0.563 -1.188,0.875 2.375,0.438 5.563,0.625 8.125,-1.688"
   id="path34" />

		<path
   fill="none"
   stroke="#000000"
   stroke-width="0.4"
   d="m 31.708,41.875 c 0,0 -2.438,1.188 -3.438,1.063 2.375,0.313 5.313,1.625 10.375,-2.938 -0.625,1.313 -0.938,2.563 -0.938,3.188 -0.938,1.625 -1,1.375 -1.875,2.25 1.75,-0.563 2.625,-0.813 3.5,-2 1,-1.375 2.75,-4.063 3.563,-4.875 -1.125,2 -2.063,5.813 2.25,6.5 -0.875,-1.438 -1.375,-3.313 -0.438,-4.313 0.625,-1 0.75,-1.438 0.75,-2.063 0.063,1.438 0.125,3 2.875,3.688 1.25,0.125 2.5,-0.5 3.375,0.125 -0.813,-1.125 -0.875,-1.438 -1.5,-1.813 -0.688,-0.625 -0.938,-2 -1.813,-2.563"
   id="path35" />

		<path
   fill="none"
   stroke="#000000"
   stroke-width="0.4"
   d="m 49.646,39.625 c 0,0 2.313,-0.25 3.375,-0.938 1.063,0 1.188,0.188 1.75,0.75 0.188,-0.875 0.625,-0.813 -0.625,-1.438 -1.188,-0.438 -4.188,-2.5 -4.813,-2.438"
   id="path36" />

		<path
   fill="none"
   stroke="#000000"
   stroke-width="0.4"
   d="m 51.708,36.688 c 0,0 2.563,-0.438 3.375,-2.063"
   id="path37" />

		<line
   fill="none"
   stroke="#000000"
   stroke-width="0.4"
   x1="17.896"
   y1="30.563"
   x2="22.396"
   y2="37.375"
   id="line37" />

		<line
   fill="none"
   stroke="#000000"
   stroke-width="0.4"
   x1="22.896"
   y1="38.125"
   x2="22.521"
   y2="39.375"
   id="line38" />

		<path
   fill="none"
   stroke="#000000"
   stroke-width="0.4"
   d="m 16.521,19.625 c 0,0 -0.063,1.313 -0.5,1.875"
   id="path38" />

		<path
   fill="none"
   stroke="#000000"
   stroke-width="0.4"
   d="m 11.771,21.813 c 0,0 1.563,-0.125 2.688,0.75"
   id="path39" />

		<path
   fill="none"
   stroke="#000000"
   stroke-width="0.4"
   d="m 15.833,30 c 0,0 0.688,-1.563 1.188,-0.625 0,1.063 0.125,3.125 0.125,3.125"
   id="path40" />

		<path
   fill="none"
   stroke="#000000"
   stroke-width="0.4"
   d="m 18.146,18.625 c 0,0 0.5,0.438 0.375,1.063"
   id="path41" />

		<path
   fill="none"
   stroke="#000000"
   stroke-width="0.4"
   d="m 10.708,24.375 c 0,0 0.125,-1.25 1.563,-1.25"
   id="path42" />

		<path
   fill="none"
   stroke="#000000"
   stroke-width="0.4"
   d="m 11.021,61.563 c 0,0 3.063,-1 4.188,-1.063"
   id="path43" />

		<path
   fill="none"
   stroke="#000000"
   stroke-width="0.4"
   d="m 13.583,65.625 c 0,0 1.313,-2.563 3.063,-3.188"
   id="path44" />

		<path
   fill="none"
   stroke="#000000"
   stroke-width="0.4"
   d="m 23.396,60.5 c 0,0 5.875,-5.063 7.438,-7.375 1.313,-1.875 3.25,-3.313 3.813,-3.625"
   id="path45" />

		<path
   fill="none"
   stroke="#000000"
   stroke-width="0.4"
   d="m 38.396,48.875 c 0,0 -2.875,2.875 -3.75,3.063"
   id="path46" />

		<path
   fill="none"
   stroke="#000000"
   stroke-width="0.4"
   d="m 31.333,50.313 c 0,0 2.813,-1.938 4,-2.063 1.313,-0.375 2.938,-1.563 3.25,-2.063"
   id="path47" />

		<path
   fill="none"
   stroke="#000000"
   stroke-width="0.4"
   d="m 39.396,48.375 c 0,0 1.938,-1.938 1.813,-4.188"
   id="path48" />

		<path
   fill="none"
   stroke="#000000"
   stroke-width="0.4"
   d="m 40.875,46.167 c 0,0 0.917,1.208 1.875,0 0.875,0.542 2.542,1.041 3.167,-0.042 0.75,0.333 2.208,0.375 2.958,-0.625 0.75,0.375 2.541,1.292 3.708,-0.708 0.667,0.208 3.125,0.75 3.667,-0.792 0,0 1.5,0.083 3.208,-0.458 2.708,-0.708 7.75,-1.583 8.75,-1.458"
   id="path49" />

		<path
   fill="none"
   stroke="#000000"
   stroke-width="0.4"
   d="m 30.833,28.938 c 0,0 2.75,-0.688 3.938,-0.625"
   id="path50" />

		<line
   fill="none"
   stroke="#000000"
   stroke-width="0.4"
   x1="33.792"
   y1="26.5"
   x2="37.146"
   y2="26"
   id="line50" />

		<path
   fill="none"
   stroke="#000000"
   stroke-width="0.4"
   d="m 31.458,31.875 c 0,0 3.938,-0.25 6.438,-3.625 -2.125,2.188 -4.438,4 -4.688,4.5 1.625,-0.688 2.188,-1.125 3.813,-1.125 2.188,-0.188 3.438,-0.375 5.125,-2.188"
   id="path51" />

		<path
   fill="none"
   stroke="#000000"
   stroke-width="0.4"
   d="m 43.146,27.313 c 0,0 -1.625,1.125 -0.875,2.625 0.125,0.75 -0.563,1.688 -1,2.063 1.25,-0.875 5.25,-1.5 5.063,-5.813 1.75,0.688 2.625,1 3.5,0.063 -1.188,-0.5 -1.438,-0.938 -1.438,-2.375 0.063,-0.875 0.438,-1.25 1.063,-1.188 0.625,0.062 1.313,-0.438 0.813,-0.875 -0.563,-0.938 -0.438,-1.5 -0.188,-2.25 0.25,-1 0.625,-1.625 0.063,-2.313"
   id="path52" />

		<path
   fill="none"
   stroke="#000000"
   stroke-width="0.4"
   d="m 34.021,36.25 c 0,0 1.438,-0.563 1.625,-1.063"
   id="path53" />

		<path
   fill="none"
   stroke="#000000"
   stroke-width="0.4"
   d="m 37.021,36.688 c 0,0 0.938,-0.813 1.188,-1.25"
   id="path54" />

		<path
   fill="none"
   stroke="#000000"
   stroke-width="0.4"
   d="m 41.396,33.813 c 0,0 0.313,1.5 -0.5,2.125"
   id="path55" />

		<path
   fill="none"
   stroke="#000000"
   stroke-width="0.4"
   d="m 44.521,33.188 c 0,0 0.25,1.188 -0.75,1.875"
   id="path56" />

		<path
   fill="none"
   stroke="#000000"
   stroke-width="0.4"
   d="m 47.271,31.688 c 0,0 0.438,1.375 -0.438,1.938"
   id="path57" />

		<path
   fill="none"
   stroke="#000000"
   stroke-width="0.4"
   d="m 48.333,30.5 c 0,0 0.625,0.5 0.5,1.188"
   id="path58" />

		<path
   fill="none"
   stroke="#000000"
   stroke-width="0.4"
   d="m 45.146,15.063 c 0,0 2.375,1.125 2.063,-1.313"
   id="path59" />

		<path
   fill="none"
   stroke="#000000"
   stroke-width="0.4"
   d="m 49.708,11.875 c 0,0 1.563,-0.313 2.125,-0.313 0.125,0.688 0.25,1.313 -0.25,1.813"
   id="path60" />

		<path
   fill="none"
   stroke="#000000"
   stroke-width="0.4"
   d="m 39.083,22.875 2.188,-0.188 c 0,0 -0.438,1.063 -0.938,1.438 1,-0.188 1,-0.125 1.313,-0.625"
   id="path61" />

		<path
   fill="none"
   stroke="#000000"
   stroke-width="0.4"
   d="m 42.396,22.5 0.625,0.125 c 0,0 -0.188,1.313 -0.625,1.5 0.938,-0.125 1.313,-0.438 1.375,-0.688"
   id="path62" />

		<path
   fill="none"
   stroke="#000000"
   stroke-width="0.4"
   d="m 46.021,22.438 -1.313,-0.063 0.125,1.313 c 0,0 1.063,-0.688 1.188,-1.25 z"
   id="path63" />

		<path
   fill="none"
   stroke="#000000"
   stroke-width="0.4"
   d="m 38.896,15.094 c 0,0 3.219,-0.875 4.781,1.969 0.781,1.469 0.781,3.406 -0.875,4.531"
   id="path64" />

		<path
   d="m 45.083,11.031 c 0,0 -1.719,-0.125 -2.375,0.656 -0.688,-0.063 0.5,1.219 1.906,0.969 -0.25,-0.344 -0.563,-0.719 -0.313,-0.906 0.25,-0.187 0.782,-0.719 0.782,-0.719 z"
   id="path65" />

		<line
   fill="none"
   stroke="#000000"
   stroke-width="0.4"
   x1="42.771"
   y1="11.906"
   x2="38.988998"
   y2="12.031"
   id="line65" />

		<line
   fill="none"
   stroke="#000000"
   stroke-width="0.4"
   x1="39.363998"
   y1="12.063"
   x2="39.396"
   y2="12.781"
   id="line66" />

		<path
   fill="none"
   stroke="#000000"
   stroke-width="0.5"
   d="m 27.239,18.656 c 0,0 -0.5,-2.031 0.625,-2.938"
   id="path66" />

		<path
   fill="none"
   stroke="#000000"
   stroke-width="0.5"
   d="m 55.083,34.625 c 0,0 7.5,-2.125 16.25,-1.375 7.875,0.875 11.625,1.75 15.125,1.375 3.5,-0.375 7.375,-2 7,-4.75 -0.5,-2 -1.75,-3.25 -4.625,-3.25 -1.5,0 -17.75,-0.625 -22.625,2.5 1.375,-1.125 1.625,-1.75 1.125,-1.875 -0.5,-0.125 -2.75,1.125 -3.875,1.375 1,-0.875 1.625,-1.875 0.625,-1.875 -1,-0.25 -4.875,-2.25 -4.625,-6.125 0.625,-4.5 1.625,-5.25 6.125,-6.375 3.375,-0.25 7.125,0.75 8.875,1.125 2.375,0 5.25,0.25 3.75,-4.125 1.75,0.5 2.125,2.625 1.5,4.375 1.375,0.625 3.5,1 5.75,-1.5 0.5,-1.375 0.5,-1.625 -0.25,-3.25 1.875,1.125 2.875,3.125 1.125,5.25 1.625,0.375 5.25,0 6.5,-1.5 1.75,-1.75 3.25,-3.625 6.5,-3.25 -3.375,1.625 -4,2 -5.125,5.75 -1.125,1.5 -4.125,3.125 -5.875,3.125 -2.5,0.125 -6.875,-0.25 -13.5,-2.625 -6.625,-2.375 -13.375,-2.5 -13.25,2.375 0.75,3 1,5 8.625,4.75 7.625,-0.25 18.625,-0.375 18.625,-0.375 0,0 4.125,-0.75 4.875,-0.75 V 25 c 0,0 3.875,-0.625 4.5,-0.5 -0.5,0.875 -1.5,1.875 -2.625,2.125 1,0.375 1.875,0.875 3,0.375 -0.5,0.625 -2.375,1.125 -2.375,1.625 1.125,0.625 1.625,0.5 2.25,0.375 -0.375,0.75 -0.75,1.125 -1.75,1.375 -0.125,0.75 -0.75,4.75 -4.125,5.875 -3.375,1.125 -8.875,1.375 -9.375,1.375 -0.25,1.5 0,3.125 0,3.125 0,0 1.875,1.125 2,1.875 0.125,0.75 1,2.5 0.875,3.375 1.75,0.625 2.375,0.5 3,1.25 0.625,-0.125 1.25,-0.25 2.125,0.25 1.375,-0.125 4.75,0.125 5.25,-0.125 0.5,-0.25 1.375,-1.25 1.75,-1.375 0.375,-0.125 1.375,-0.25 2,-0.25 0,0 -1.5,2.375 -1.563,3.375 -1,0.75 -1,0.563 -1.75,0.563 -0.688,0.5 -0.875,0.563 -0.938,1.188 0.938,0.25 2.813,0.313 3.375,-0.188 -0.063,0.75 -1.563,1.813 -2.313,2.063 -0.75,0.563 -0.688,0.75 -1,1.5 1,0 2.688,-0.625 3.313,-1.25 -0.063,0.625 -1.063,2.313 -3.625,2.75 -0.313,0.688 -0.438,1.313 -0.438,1.313 0,0 1.75,0.375 2.625,-0.75 0,1.063 -0.625,2 -2.25,2.25 -0.563,0.313 -0.875,0.625 -0.938,1.188 0.688,0.313 0.375,0.5 1.063,0.063 -0.625,0.75 -1.188,1.813 -1.5,2.375 -0.25,0.813 -0.313,1.188 -0.313,1.188 l -0.938,-0.625 c 0,0 -1,2.5 -2.625,2.75 -1.25,0.063 -2.313,-1.375 -2.5,-0.938 -0.188,0.5 -0.75,1.063 -0.375,1.625 0,0 -1,-0.625 -0.969,-1.563 -0.531,0.656 -2.094,1.844 -4.281,-0.063 -0.406,0.5 -0.469,0.406 -0.469,0.906 -0.469,-1.063 -0.375,-2.469 0.813,-3.438 -0.094,-0.656 -0.781,-2.75 2.156,-3.594 0.813,-0.188 1.531,-0.031 3.063,0.813 0.656,0.063 1.125,-0.406 1.219,-0.531 0.094,-0.125 -0.469,-3.469 -1.156,-4.094 -0.563,-0.375 -5.938,-2.469 -5.938,-2.469 0,0 -0.625,-0.219 -0.5,0.625 0.156,0.688 0.188,3.219 -0.969,4.125 -0.469,-1.406 -1.875,-5.188 -2.094,-5.438 0.625,1.594 1.781,3.656 -1.063,7.188 0,0 1.531,-4.5 -4,-9.031 -1.469,0.719 -4.188,2.906 -5.313,6.75 0,0.875 -0.156,1.094 0.844,1.25 0.938,0.313 1.531,0.313 2.094,0.094 0,0 1.406,-0.031 2.406,0.406 -1.281,0.563 -3.125,1.313 -4.656,0.938 -0.531,-0.156 -1.188,-0.625 -1.594,0.188 -0.219,0.594 -0.5,1.031 0.75,1.125 0.906,0.219 0.875,0.188 1.469,0.594 0.844,0.188 0.813,0.25 1.406,0.156 0,0 -0.188,1.281 -2.031,1.063 -1.344,-0.5 -1.156,-0.469 -1.938,-0.719 -1.188,-0.156 -2.563,-0.031 -1.531,0.813 0.906,0.219 0.969,0.031 1.313,0.594 -0.188,0.531 -1.344,0.656 -2.031,0.719 -0.844,0.094 -1.281,0.188 -1.656,-0.219 -0.594,-0.719 -1.563,-0.875 -1.531,0.031 0.313,0.344 0.406,0.344 1.125,0.563 -0.656,0.438 -1.813,0.313 -2.406,-0.031 -0.594,-0.219 -1.375,-0.094 -0.938,0.656 0.188,0.5 0.031,0.5 0.25,0.719 -0.75,-0.094 -2.438,-0.813 -2.531,-1.156 -0.094,-0.469 -0.125,-0.625 -0.031,-0.875 0,0 -1.125,1.375 -1.406,1.719 -0.938,0.031 -1.031,0.188 -1.188,-0.188 -0.157,-0.376 -0.719,-1.125 -0.719,-1.125 0,0 -1.688,1.625 -3.594,1.563 -1.813,-0.344 -1.938,-0.563 -2.25,-1.125 -0.594,0.156 -1.438,0.656 -1.406,1.406 -0.281,-0.563 -0.406,-0.656 -0.375,-1.219 -0.625,-0.125 -0.969,-0.188 -1.25,-0.688 0,0 -1.125,0.063 -0.844,0.844 -0.875,-1 -1.531,-3.094 1.938,-4.281 1.281,-0.25 1.563,-0.406 1.688,-0.438 -0.156,-0.531 -0.313,-1 -0.063,-1.219 -0.563,0.156 -1.438,0.688 -1.875,1.125 -0.219,-0.469 0.094,-1.875 2.281,-2.75 1.594,0.531 2.906,0.656 3.813,2.5 0,0 5.5,0.5 8.844,-4.375 0.031,-0.344 0.156,-0.563 -0.438,-0.469 -0.594,0.188 -3.344,-0.094 -4.875,0.156 0.625,-0.563 0.813,-1.031 1.75,-1.094 0.875,-0.281 1.938,-0.594 2.281,-1.094 -1.125,-0.156 -2.375,-0.156 -3,0.125 -0.844,0.188 -1.438,0.344 -1.906,-0.031 -0.563,-0.375 -1.375,-0.75 -1.813,-0.594 0.75,-0.375 1.188,-1.063 2.5,-0.906 1.219,0.063 4,0.563 6.25,-1.781 0,0 4.656,-4.427 9.938,-4.427 -0.125,-1.031 -0.531,-0.729 -0.406,-1.292 0,0 -9.469,0.875 -14.031,3 -4.375,1.563 -12.125,3.688 -17,1.938 0.438,1 0.188,0.938 0.813,1.438 0.875,0.438 2.125,0.25 2.375,1.125 -1.438,0.438 -1.938,-0.25 -2.938,0.375 -1.375,-0.313 -1.625,0.5 -2.75,-1.063 -0.875,0.5 -1.125,0.75 -1.125,0.75 0,0 0.752,0.81 1.314,1.81 0.813,0.125 2.125,0.125 2.188,0.438 -0.188,0.563 -0.688,1.063 -1.375,1 -1.25,-0.563 -4.188,-1.688 -4.625,-0.625 0.75,0.563 1.188,0.625 1.313,1.25 1,0.25 1.625,0.188 1.875,0.438 -0.125,0.625 -1.188,0.188 -1.438,0.625 -1.063,-0.063 -2.875,-0.813 -3.875,-0.188 1.125,1.063 2,1.938 2.5,1.688 0,0 -1.313,1 -2.938,0.375 -0.875,-0.438 -2.063,-0.5 -1.938,0.625 0.563,0.688 0.5,1.063 1.125,1.063 -0.813,0.438 -2.188,0.688 -2.5,-0.125 -0.438,0.375 -0.438,1.313 0.375,1.813 -0.813,0.313 -1.563,0.125 -2.438,-0.563 -0.563,0.75 -1.438,1.563 -1.875,1.25 -0.438,-0.438 -0.438,-0.438 -0.438,-0.438 0,0 0.125,1.563 -0.438,1.875 -0.625,0.5 -2.5,1.313 -2.5,1.313 0,0 0.5,-0.563 0.188,-1.75 -0.25,0.938 -1.063,2.875 -3.438,2.813 -1.063,-0.063 -1.063,0.125 -1.75,-0.625 -0.313,0.5 -0.813,1.625 -0.063,2.375 -0.813,-0.5 -1.5,-0.438 -1.688,-2 -0.813,0.063 -2.313,0.125 -3.188,-1 -0.438,0.813 -0.938,0.75 -0.188,1.563 -0.813,-0.25 -2.625,-0.875 -1.125,-3.375 0.875,-0.875 0.875,-1.25 1.938,-1.25 0.063,-0.75 -0.25,-0.688 -0.25,-0.688 0,0 -1.375,-0.313 -1,-1.563 0.875,-1.25 1.938,-2.063 3.938,-1.25 1.813,0.563 3,1.5 6.313,-0.313 3.5,-2.313 8.25,-8.063 8.813,-10.688 -0.75,0.125 -2.125,0.125 -2.313,1.25 0.063,-1.375 0.063,-3.375 0.25,-4.188 -0.875,1.375 -1.438,1.563 -1.5,2.563 -0.438,-1.625 -0.438,-1.813 -0.375,-3 -0.063,-1.25 -0.25,-1.813 -0.563,-2.563 -0.5,1.688 -0.438,2.313 -0.938,3 -0.438,-1.313 -0.938,-3.875 -0.875,-4.75 -0.75,-0.5 -1.688,-0.813 -1.688,-0.813 0,0 -0.5,1.188 -0.313,2 -0.938,-1.938 -1.625,-4.438 -1.563,-5.063 -0.313,0.938 -0.688,1.75 -0.688,1.75 L 17.39,32.561 c 0,0 -1.063,0.5 -1.25,-0.625 -0.188,-1.375 -0.063,-1.688 -0.313,-1.938 -0.25,-0.25 -1.75,1.125 -2.875,-0.25 0.813,-0.5 0.813,-0.688 1.438,-0.25 0,0 -2.438,-1.438 -0.375,-3.5 -2.125,-0.375 -3.25,-0.875 -3.313,-1.625 -0.625,0.438 -0.875,0.375 -0.875,1.125 -0.25,-1.188 0.188,-3.375 1.938,-3.688 0,-1.25 -0.25,-2.375 1.438,-3.438 -0.75,-0.25 -1.813,-0.813 -2.5,0.063 1.75,-1.375 3,-2.438 4.5,-0.875 0.75,1.125 1.188,1.25 1.313,2.063 0.875,-0.563 1.625,-1 1.625,-1 0,0 0.25,-0.563 -1.063,-1.063 1.188,-0.438 2.75,0.063 3.125,1.625 0.188,0.875 -0.188,3.25 -0.688,4.25 -0.188,1.125 -0.125,1.875 0.5,2.875 0.625,1 5.25,6.75 5.25,6.75 0,0 1.125,0.875 1.25,-0.25 -0.313,-1.063 -0.438,-1.25 -1.063,-1.688 0,0 1.083,-0.25 2.625,1.375 0.417,0.375 1.625,0.667 3.208,-0.375 C 30.917,31.542 28.833,31 28,31.417 c 0.417,-0.792 0.458,-1.166 0.667,-1.458 0.417,-0.292 1.333,-0.917 1.958,-0.917 -0.667,-0.625 -1.209,-1.542 -1.917,-1.5 1.833,-0.125 1.625,-0.333 2.792,-0.042 1.208,0.042 2,-0.167 2.292,-1 -0.833,-0.875 -2.042,-1.458 -3.333,-1.25 0.708,-1.083 2.459,-1.042 4.042,-0.625 1.708,0.083 3.708,0 4.583,-1.75 -0.833,-0.125 -2.208,-0.333 -2.333,-1.292 0.292,-0.917 0.375,-0.834 1.917,-0.792 C 40.46,20.583 42.71,21 42.626,19.333 41.959,17.541 40.834,16 38.668,15.958 c -2.166,-0.042 -2.542,-0.042 -2.542,-0.042 0,0 -0.751,0.084 -0.834,-1.166 0.042,-1.458 0.292,-2.25 0.375,-2.542 0.083,-0.292 0.208,-1.083 1.375,-1.083 l 1.375,-0.083 c 0,0 0.25,0 0.458,0.083 0.208,0.083 2.458,-0.25 2.792,-0.458 0.334,-0.208 2.042,-0.083 2.042,-0.083 0,0 1.333,-1 2.958,-0.667 0,0 2.083,0.75 3.708,0.375 0.75,-0.208 1.75,-0.167 2.292,-0.042 0.708,0.458 1.042,1.125 0.208,3 0.417,0.958 0.917,4.125 1.75,5.375 -1.292,-0.292 -1.25,-0.083 -1.667,-0.458 -0.125,0.667 0.167,3.25 0.875,4.375 0.292,0.542 0.625,0.792 -0.25,0.917 -0.625,-0.042 -0.833,0.042 -1.125,-0.75 0,1.042 -0.125,2.625 1.208,3.917 0.334,0.624 0.751,0.874 0.084,1.166 -0.625,0.083 -0.583,0.334 -1.458,0.042 0.167,1 0.375,2.75 3.25,2.875 -0.458,0.75 -1.958,2.708 -3.292,2.833 1.083,0.875 1.125,1.041 2.833,1.083 z"
   id="path67" />

	</g>

	<g
   id="g129">
		<path
   fill="#ed1c24"
   stroke="#000000"
   stroke-width="0.5"
   d="m 103.655,100.364 c 0,0 -6.75,-1.313 -9.375,-0.406 0,0 -2.844,0.719 -4.313,-1.188 -0.688,-1.125 -0.938,-2.906 1.656,-3.749 -3.156,0.749 -6,1.843 -3.844,5.187 0.875,1.406 1.875,2.219 5.563,1.188 1.219,-0.281 3.813,-0.719 5.719,-0.438 1.813,0.281 4.844,0.906 4.844,0.906 z"
   id="path68" />

		<path
   fill="#0047ab"
   d="m 115.749,116.458 c 0,0 7.5,-2.125 16.25,-1.375 7.875,0.875 11.625,1.75 15.125,1.375 3.5,-0.375 7.375,-2 7,-4.75 -0.5,-2 -1.75,-3.25 -4.625,-3.25 -1.5,0 -17.75,-0.625 -22.625,2.5 1.375,-1.125 1.625,-1.75 1.125,-1.875 -0.5,-0.125 -2.75,1.125 -3.875,1.375 1,-0.875 1.625,-1.875 0.625,-1.875 -1,-0.25 -4.875,-2.25 -4.625,-6.125 0.625,-4.5 1.625,-5.25 6.125,-6.375 3.375,-0.25 7.125,0.75 8.875,1.125 2.375,0 5.25,0.25 3.75,-4.125 1.75,0.5 2.125,2.625 1.5,4.375 1.375,0.625 3.5,1 5.75,-1.5 0.5,-1.374 0.5,-1.624 -0.25,-3.25 1.875,1.125 2.875,3.125 1.125,5.25 1.625,0.375 5.25,0 6.5,-1.5 1.75,-1.749 3.25,-3.625 6.5,-3.25 -3.375,1.625 -4,2 -5.125,5.75 -1.125,1.5 -4.125,3.125 -5.875,3.125 -2.5,0.125 -6.875,-0.25 -13.5,-2.625 -6.625,-2.375 -13.375,-2.5 -13.25,2.375 0.75,3 1,5 8.625,4.75 7.625,-0.25 18.625,-0.375 18.625,-0.375 0,0 4.125,-0.75 4.875,-0.75 v 1.375 c 0,0 3.875,-0.625 4.5,-0.5 -0.5,0.875 -1.5,1.875 -2.625,2.125 1,0.375 1.875,0.875 3,0.375 -0.5,0.625 -2.375,1.125 -2.375,1.625 1.125,0.625 1.625,0.5 2.25,0.375 -0.375,0.75 -0.75,1.125 -1.75,1.375 -0.125,0.75 -0.75,4.75 -4.125,5.875 -3.375,1.125 -8.875,1.375 -9.375,1.375 -0.25,1.5 0,3.125 0,3.125 0,0 1.875,1.125 2,1.875 0.125,0.75 1,2.5 0.875,3.375 1.75,0.625 2.375,0.5 3,1.25 0.625,-0.125 1.25,-0.25 2.125,0.25 1.375,-0.125 4.75,0.125 5.25,-0.125 0.5,-0.25 1.375,-1.25 1.75,-1.375 0.375,-0.125 1.375,-0.25 2,-0.25 0,0 -1.5,2.375 -1.563,3.375 -1,0.75 -1,0.563 -1.75,0.563 -0.688,0.5 -0.875,0.563 -0.938,1.188 0.938,0.25 2.813,0.313 3.375,-0.188 -0.063,0.75 -1.563,1.813 -2.313,2.063 -0.75,0.563 -0.688,0.75 -1,1.5 1,0 2.688,-0.625 3.313,-1.25 -0.063,0.625 -1.063,2.313 -3.625,2.75 -0.313,0.688 -0.438,1.313 -0.438,1.313 0,0 1.75,0.375 2.625,-0.75 0,1.063 -0.625,2 -2.25,2.25 -0.563,0.313 -0.875,0.625 -0.938,1.188 0.688,0.313 0.375,0.5 1.063,0.063 -0.625,0.75 -1.188,1.813 -1.5,2.375 -0.25,0.813 -0.313,1.188 -0.313,1.188 l -0.938,-0.625 c 0,0 -1,2.5 -2.625,2.75 -1.25,0.063 -2.313,-1.375 -2.5,-0.938 -0.188,0.5 -0.75,1.063 -0.375,1.625 0,0 -1,-0.625 -0.969,-1.563 -0.531,0.656 -2.094,1.844 -4.281,-0.063 -0.406,0.5 -0.469,0.406 -0.469,0.906 -0.469,-1.063 -0.375,-2.469 0.813,-3.438 -0.094,-0.656 -0.781,-2.75 2.156,-3.594 0.813,-0.188 1.531,-0.031 3.063,0.813 0.656,0.063 1.125,-0.406 1.219,-0.531 0.094,-0.125 -0.469,-3.469 -1.156,-4.094 -0.563,-0.375 -5.938,-2.469 -5.938,-2.469 0,0 -0.625,-0.219 -0.5,0.625 0.156,0.688 0.188,3.219 -0.969,4.125 -0.469,-1.406 -1.875,-5.188 -2.094,-5.438 0.625,1.594 1.781,3.656 -1.063,7.188 0,0 1.531,-4.5 -4,-9.031 -1.469,0.719 -4.188,2.906 -5.313,6.75 0,0.875 -0.156,1.094 0.844,1.25 0.938,0.313 1.531,0.313 2.094,0.094 0,0 1.406,-0.031 2.406,0.406 -1.281,0.563 -3.125,1.313 -4.656,0.938 -0.531,-0.156 -1.188,-0.625 -1.594,0.188 -0.219,0.594 -0.5,1.031 0.75,1.125 0.906,0.219 0.875,0.188 1.469,0.594 0.844,0.188 0.813,0.25 1.406,0.156 0,0 -0.188,1.281 -2.031,1.063 -1.344,-0.5 -1.156,-0.469 -1.938,-0.719 -1.188,-0.156 -2.563,-0.031 -1.531,0.813 0.906,0.219 0.969,0.031 1.313,0.594 -0.188,0.531 -1.344,0.656 -2.031,0.719 -0.844,0.094 -1.281,0.188 -1.656,-0.219 -0.594,-0.719 -1.563,-0.875 -1.531,0.031 0.313,0.344 0.406,0.344 1.125,0.563 -0.656,0.438 -1.813,0.313 -2.406,-0.031 -0.594,-0.219 -1.375,-0.094 -0.938,0.656 0.188,0.5 0.031,0.5 0.25,0.719 -0.75,-0.094 -2.438,-0.813 -2.531,-1.156 -0.094,-0.469 -0.125,-0.625 -0.031,-0.875 0,0 -1.125,1.375 -1.406,1.719 -0.938,0.031 -1.031,0.188 -1.188,-0.188 -0.157,-0.376 -0.719,-1.125 -0.719,-1.125 0,0 -1.688,1.625 -3.594,1.563 -1.813,-0.344 -1.938,-0.563 -2.25,-1.125 -0.594,0.156 -1.438,0.656 -1.406,1.406 -0.281,-0.563 -0.406,-0.656 -0.375,-1.219 -0.625,-0.125 -0.969,-0.188 -1.25,-0.688 0,0 -1.125,0.063 -0.844,0.844 -0.875,-1 -1.531,-3.094 1.938,-4.281 1.281,-0.25 1.563,-0.406 1.688,-0.438 -0.156,-0.531 -0.313,-1 -0.063,-1.219 -0.563,0.156 -1.438,0.688 -1.875,1.125 -0.219,-0.469 0.094,-1.875 2.281,-2.75 1.594,0.531 2.906,0.656 3.813,2.5 0,0 5.5,0.5 8.844,-4.375 0.031,-0.344 0.156,-0.563 -0.438,-0.469 -0.594,0.188 -3.344,-0.094 -4.875,0.156 0.625,-0.563 0.813,-1.031 1.75,-1.094 0.875,-0.281 1.938,-0.594 2.281,-1.094 -1.125,-0.156 -2.375,-0.156 -3,0.125 -0.844,0.188 -1.438,0.344 -1.906,-0.031 -0.563,-0.375 -1.375,-0.75 -1.813,-0.594 0.75,-0.375 1.188,-1.063 2.5,-0.906 1.219,0.063 4,0.563 6.25,-1.781 0,0 4.656,-4.427 9.938,-4.427 -0.125,-1.031 -0.531,-0.729 -0.406,-1.292 0,0 -9.469,0.875 -14.031,3 -4.375,1.563 -12.125,3.688 -17,1.938 0.438,1 0.188,0.938 0.813,1.438 0.875,0.438 2.125,0.25 2.375,1.125 -1.438,0.438 -1.938,-0.25 -2.938,0.375 -1.375,-0.313 -1.625,0.5 -2.75,-1.063 -0.875,0.5 -1.125,0.75 -1.125,0.75 0,0 0.75,0.813 1.313,1.813 0.813,0.125 2.125,0.125 2.188,0.438 -0.188,0.563 -0.688,1.063 -1.375,1 -1.25,-0.563 -4.188,-1.688 -4.625,-0.625 0.75,0.563 1.188,0.625 1.313,1.25 1,0.25 1.625,0.188 1.875,0.438 -0.125,0.625 -1.188,0.188 -1.438,0.625 -1.063,-0.063 -2.875,-0.813 -3.875,-0.188 1.125,1.063 2,1.938 2.5,1.688 0,0 -1.313,1 -2.938,0.375 -0.875,-0.438 -2.063,-0.5 -1.938,0.625 0.563,0.688 0.5,1.063 1.125,1.063 -0.813,0.438 -2.188,0.688 -2.5,-0.125 -0.438,0.375 -0.438,1.313 0.375,1.813 -0.813,0.313 -1.563,0.125 -2.438,-0.563 -0.563,0.75 -1.438,1.563 -1.875,1.25 -0.438,-0.438 -0.438,-0.438 -0.438,-0.438 0,0 0.125,1.563 -0.438,1.875 -0.625,0.5 -2.5,1.313 -2.5,1.313 0,0 0.5,-0.563 0.188,-1.75 -0.25,0.938 -1.063,2.875 -3.438,2.813 -1.063,-0.063 -1.063,0.125 -1.75,-0.625 -0.313,0.5 -0.813,1.625 -0.063,2.375 -0.813,-0.5 -1.5,-0.438 -1.688,-2 -0.813,0.063 -2.313,0.125 -3.188,-1 -0.438,0.813 -0.938,0.75 -0.188,1.563 -0.813,-0.25 -2.625,-0.875 -1.125,-3.375 0.875,-0.875 0.875,-1.25 1.938,-1.25 0.063,-0.75 -0.25,-0.688 -0.25,-0.688 0,0 -1.375,-0.313 -1,-1.563 0.875,-1.25 1.938,-2.063 3.938,-1.25 1.813,0.563 3,1.5 6.313,-0.313 3.5,-2.313 8.25,-8.063 8.813,-10.688 -0.75,0.125 -2.125,0.125 -2.313,1.25 0.063,-1.375 0.063,-3.375 0.25,-4.188 -0.875,1.375 -1.438,1.563 -1.5,2.563 -0.438,-1.625 -0.438,-1.813 -0.375,-3 -0.063,-1.25 -0.25,-1.813 -0.563,-2.563 -0.5,1.688 -0.438,2.313 -0.938,3 -0.438,-1.313 -0.938,-3.875 -0.875,-4.75 -0.75,-0.5 -1.688,-0.813 -1.688,-0.813 0,0 -0.5,1.188 -0.313,2 -0.938,-1.938 -1.625,-4.438 -1.563,-5.063 -0.313,0.938 -0.688,1.75 -0.688,1.75 l -0.875,-4.688 c 0,0 -1.063,0.5 -1.25,-0.625 -0.188,-1.375 -0.063,-1.688 -0.313,-1.938 -0.25,-0.25 -1.75,1.125 -2.875,-0.25 0.813,-0.5 0.813,-0.688 1.438,-0.25 0,0 -2.438,-1.438 -0.375,-3.5 -2.125,-0.375 -3.25,-0.875 -3.313,-1.625 -0.625,0.438 -0.875,0.375 -0.875,1.125 -0.25,-1.188 0.188,-3.375 1.938,-3.688 0,-1.25 -0.25,-2.375 1.438,-3.438 -0.75,-0.25 -1.813,-0.813 -2.5,0.063 1.75,-1.375 3,-2.438 4.5,-0.875 0.75,1.125 1.188,1.25 1.313,2.063 0.875,-0.563 1.625,-1 1.625,-1 0,0 0.25,-0.563 -1.063,-1.063 1.188,-0.438 2.75,0.063 3.125,1.625 0.188,0.875 -0.188,3.25 -0.688,4.25 -0.188,1.125 -0.125,1.875 0.5,2.875 0.625,1 5.25,6.75 5.25,6.75 0,0 1.125,0.875 1.25,-0.25 -0.313,-1.063 -0.438,-1.25 -1.063,-1.688 0,0 1.083,-0.25 2.625,1.375 0.417,0.375 1.625,0.667 3.209,-0.375 -0.375,-0.583 -2.459,-1.125 -3.292,-0.708 0.417,-0.792 0.458,-1.166 0.667,-1.458 0.416,-0.292 1.333,-0.917 1.958,-0.917 -0.667,-0.625 -1.209,-1.542 -1.917,-1.5 1.834,-0.125 1.625,-0.333 2.792,-0.042 1.208,0.042 2,-0.166 2.292,-1 -0.834,-0.875 -2.043,-1.458 -3.334,-1.25 0.709,-1.083 2.459,-1.041 4.042,-0.625 1.708,0.084 3.708,0 4.583,-1.75 -0.833,-0.125 -2.208,-0.332 -2.333,-1.291 0.292,-0.917 0.375,-0.834 1.917,-0.792 1.791,-0.208 4.041,0.209 3.958,-1.458 -0.667,-1.792 -1.792,-3.333 -3.958,-3.375 -2.167,-0.042 -2.542,-0.042 -2.542,-0.042 0,0 -0.75,0.083 -0.833,-1.167 0.041,-1.458 0.291,-2.249 0.375,-2.541 0.083,-0.292 0.208,-1.083 1.375,-1.083 l 1.375,-0.083 c 0,0 0.25,0 0.458,0.083 0.208,0.083 2.458,-0.25 2.792,-0.458 0.333,-0.208 2.041,-0.083 2.041,-0.083 0,0 1.334,-1 2.959,-0.667 0,0 2.083,0.75 3.708,0.375 0.75,-0.208 1.75,-0.167 2.292,-0.042 0.708,0.458 1.041,1.125 0.208,3 0.417,0.959 0.917,4.125 1.75,5.375 -1.292,-0.291 -1.251,-0.083 -1.667,-0.458 -0.125,0.667 0.166,3.25 0.875,4.375 0.292,0.542 0.625,0.792 -0.25,0.917 -0.625,-0.042 -0.834,0.042 -1.125,-0.75 0,1.041 -0.125,2.625 1.209,3.916 0.333,0.625 0.75,0.875 0.083,1.167 -0.625,0.083 -0.583,0.334 -1.458,0.042 0.166,1 0.375,2.75 3.25,2.875 -0.459,0.75 -1.959,2.708 -3.292,2.833 1.09,0.874 1.131,1.041 2.84,1.082 z"
   id="path69" />

		<path
   fill="#ed1c24"
   d="m 81.283,145.567 c 0.02,0.725 -0.284,1.078 -0.284,1.078 0,0 1.875,-0.813 2.5,-1.313 0.258,-0.143 0.368,-0.549 0.415,-0.947 -0.595,-0.044 -1.959,0.011 -2.631,1.182 z"
   id="path70" />

		<path
   fill="#ed1c24"
   d="m 70.437,141.146 c -0.375,1.25 1,1.563 1,1.563 0,0 0.062,-0.008 0.125,0.045 l 0.021,-0.004 c 0,0 -1.083,-2.166 2.875,-2.582 0.197,-0.021 0.369,-0.041 0.537,-0.061 -0.201,-0.072 -0.406,-0.145 -0.62,-0.211 -2.001,-0.813 -3.063,0 -3.938,1.25 z"
   id="path71" />

		<path
   fill="#ed1c24"
   d="m 71.687,143.396 c -1.063,0 -1.063,0.375 -1.938,1.25 -1.5,2.5 0.313,3.125 1.125,3.375 -0.75,-0.813 -0.25,-0.75 0.188,-1.563 0.068,0.088 0.147,0.158 0.223,0.23 0.205,-1.068 0.639,-3.121 1.007,-3.396 0.21,-0.158 -0.14,-0.248 -0.615,-0.301 0.017,0.098 0.024,0.227 0.01,0.405 z"
   id="path72" />

		<path
   fill="#ed1c24"
   d="m 75.937,149.458 c -0.75,-0.75 -0.25,-1.875 0.063,-2.375 0.004,0.006 0.007,0.008 0.012,0.012 l 0.092,-2.012 -0.667,0.646 -0.458,0.563 -0.458,0.75 -0.223,0.68 c 0.233,1.275 0.878,1.269 1.639,1.736 z"
   id="path73" />

		<path
   fill="#ed1c24"
   d="m 108.093,144.396 c -0.625,-0.156 -0.781,0.75 -0.781,0.75 l -0.778,1.168 c 0.005,0.408 0.124,0.557 0.372,1.051 -0.031,-0.75 0.813,-1.25 1.406,-1.406 0.029,0.055 0.058,0.102 0.086,0.148 0.064,-0.389 0.218,-1.581 -0.305,-1.711 z"
   id="path74" />

		<path
   fill="#ed1c24"
   d="m 106.124,141.489 c 0.438,-0.438 1.313,-0.969 1.875,-1.125 -0.082,0.072 -0.109,0.178 -0.119,0.295 l 0.057,-0.045 1.313,-1.611 c -0.273,-0.082 -0.552,-0.166 -0.844,-0.264 -2.188,0.875 -2.501,2.282 -2.282,2.75 z"
   id="path75" />

		<path
   fill="#ed1c24"
   d="m 104.437,146.302 c -0.281,-0.781 0.844,-0.844 0.844,-0.844 0.014,0.025 0.029,0.037 0.044,0.059 0.214,-0.992 0.741,-3.064 1.519,-3.559 0.029,-0.018 0.045,-0.033 0.071,-0.051 -0.159,0.035 -0.332,0.072 -0.54,0.113 -3.47,1.188 -2.813,3.282 -1.938,4.282 z"
   id="path76" />

		<path
   fill="#ed1c24"
   d="m 143.28,143.864 c -1.188,0.969 -1.281,2.375 -0.813,3.438 0,-0.5 0.063,-0.406 0.469,-0.906 0.061,0.053 0.119,0.096 0.18,0.145 0.3,-0.938 0.832,-2.76 0.445,-2.791 -0.521,-0.041 0.646,-0.313 0.646,-0.313 0,0 0.67,-2.203 1.554,-3.221 -0.108,0.012 -0.216,0.029 -0.325,0.055 -2.937,0.843 -2.249,2.937 -2.156,3.593 z"
   id="path77" />

		<path
   fill="#ed1c24"
   d="m 148.062,145.167 c -0.5,-0.105 -0.771,1.145 -0.771,1.145 l -0.064,0.225 c 0.026,0.893 0.961,1.484 0.961,1.484 -0.375,-0.563 0.188,-1.125 0.375,-1.625 0.047,-0.109 0.148,-0.102 0.294,-0.029 -0.226,-0.546 -0.528,-1.143 -0.795,-1.2 z"
   id="path78" />

		<path
   fill="#ed1c24"
   d="m 71.82,99.921 c 0.542,-0.254 1.19,-0.027 1.741,0.176 l 0.021,-0.014 c 0,0 1.523,-1.191 2.36,-0.59 -0.023,-0.034 -0.044,-0.061 -0.068,-0.098 -1.369,-1.425 -2.531,-0.664 -4.054,0.526 z"
   id="path79" />

		<path
   fill="#ed1c24"
   d="m 77.749,99.396 c 0.77,0.293 0.997,0.605 1.057,0.815 0.082,0.013 1.655,0.265 2.11,1.182 -0.007,-0.141 -0.021,-0.269 -0.042,-0.372 -0.375,-1.563 -1.937,-2.063 -3.125,-1.625 z"
   id="path80" />

		<path
   fill="#ed1c24"
   d="m 70.499,107.333 c 0,-0.75 0.25,-0.688 0.875,-1.125 0.01,0.125 0.061,0.239 0.128,0.35 l -0.128,-0.391 c 0,0 0.417,-1.25 1.458,-1.25 1.041,0 0.625,-1.25 0.625,-1.25 l -1.025,-0.277 c 0.001,0.086 0.004,0.17 0.004,0.256 -1.749,0.312 -2.187,2.5 -1.937,3.687 z"
   id="path81" />

		<path
   fill="#ed1c24"
   d="m 77.291,110.875 c 0.25,0 0.166,-1 -0.417,-0.917 -0.563,0.081 -1.97,1.125 -2.065,1.195 0.067,0.053 0.124,0.096 0.167,0.125 0.029,0.019 0.053,0.033 0.085,0.055 0,0 -0.034,-0.02 -0.085,-0.055 -0.075,-0.051 -0.143,-0.09 -0.202,-0.119 l -0.105,-0.045 c -0.29,-0.094 -0.449,0.102 -1.045,0.469 1.125,1.375 2.625,0 2.875,0.25 0.004,0.004 0.006,0.01 0.01,0.014 l 0.032,-0.055 c 0,0 0.5,-0.917 0.75,-0.917 z"
   id="path82" />

		<path
   fill="none"
   stroke="#000000"
   stroke-width="0.4"
   d="m 149.062,118.208 c 0,0 0.063,0.688 -7.813,0.563 0.25,2.188 0.438,3 0.313,3.5 0.938,0.75 2.75,1.813 2.938,5.813"
   id="path83" />

		<path
   fill="none"
   stroke="#000000"
   stroke-width="0.4"
   d="m 143.28,143.864 c 0,0 2.781,-1.281 4.031,-1.531"
   id="path84" />

		<path
   fill="none"
   stroke="#000000"
   stroke-width="0.4"
   d="m 147.374,146.083 c 0,0 1.063,-1.938 2.938,-3.063"
   id="path85" />

		<path
   fill="none"
   stroke="#000000"
   stroke-width="0.4"
   d="m 155.187,129.958 c 0,0 0.75,0.688 0.438,1.688 -0.313,1.063 -0.375,1.625 -0.375,1.625"
   id="path86" />

		<line
   fill="none"
   stroke="#000000"
   stroke-width="0.4"
   x1="153.99899"
   y1="138.521"
   x2="154.812"
   y2="135.646"
   id="line86" />

		<line
   fill="none"
   stroke="#000000"
   stroke-width="0.4"
   x1="155.99899"
   y1="138.646"
   x2="154.937"
   y2="140.021"
   id="line87" />

		<path
   fill="none"
   stroke="#000000"
   stroke-width="0.4"
   d="m 149.749,129.083 c 0,0 0.875,0.75 1,1.5 1.188,0.5 1.75,0.5 1.75,0.5 0,0 1.125,0.625 0.938,1.563 -0.187,0.938 -0.563,6.25 -0.563,6.25"
   id="path87" />

		<line
   fill="none"
   stroke="#000000"
   stroke-width="0.4"
   x1="153.312"
   y1="133.896"
   x2="150.062"
   y2="133.771"
   id="line88" />

		<path
   fill="none"
   stroke="#000000"
   stroke-width="0.4"
   d="m 148.749,133.458 -3.563,0.125 c 0,0 -1.563,-0.875 -2.313,-1.125 -0.875,0.188 -2.438,0.188 -4.438,-0.313 -1.938,-0.75 -4.938,-2.625 -6.188,-4.75 -0.906,-1.938 -0.688,-2.375 -0.063,-3.625 0.875,-1.375 3,-2.563 1.188,-4.125"
   id="path88" />

		<line
   fill="none"
   stroke="#000000"
   stroke-width="0.4"
   x1="108.062"
   y1="141.58299"
   x2="110.749"
   y2="141.58299"
   id="line89" />

		<path
   fill="none"
   stroke="#000000"
   stroke-width="0.4"
   d="m 106.53,146.146 c 0,0 1.156,-2.375 3.594,-2.75 1.438,-0.188 3.438,0.188 4.688,-1.063"
   id="path89" />

		<line
   fill="none"
   stroke="#000000"
   stroke-width="0.4"
   x1="119.187"
   y1="144.08299"
   x2="122.374"
   y2="142.521"
   id="line90" />

		<path
   fill="none"
   stroke="#000000"
   stroke-width="0.4"
   d="m 119.999,134.146 c 0,0 1,-0.313 1.563,0"
   id="path90" />

		<path
   fill="none"
   stroke="#000000"
   stroke-width="0.4"
   d="m 124.874,131.083 c 0,0 1.875,-1.375 2.688,-1.688"
   id="path91" />

		<path
   fill="none"
   stroke="#000000"
   stroke-width="0.4"
   d="m 124.624,134.021 c -1,0.125 -3.438,2.625 -3.438,2.625 l -0.125,0.219 c 0,0 1.25,0.781 2.625,-0.094 0,0 2.188,-1.016 2.625,-2.313 1.25,-1.375 1.938,-1.188 2.313,-1.438"
   id="path92" />

		<path
   fill="none"
   stroke="#000000"
   stroke-width="0.4"
   d="m 125.562,135.771 c 0,0 -0.438,0.938 1.25,2.25"
   id="path93" />

		<path
   fill="none"
   stroke="#000000"
   stroke-width="0.4"
   d="m 131.499,131.146 c 0,0 -4.75,3.563 -4.875,8.438 -0.125,0.75 -0.25,0.75 -0.625,1 -0.563,0.375 -2.5,1.063 -2.5,1.063"
   id="path94" />

		<path
   fill="none"
   stroke="#000000"
   stroke-width="0.4"
   d="m 86.812,115.458 c 0,0 1.25,1.688 3.125,1.625 -0.688,0.75 -3.375,3.813 -5.5,3.938 1.25,0.188 5.063,-0.313 6.938,-2.125 -3.375,2.25 -4.438,2.875 -5.375,2.938 1,0.438 3.188,1.5 5.125,0.063 1.5,-1.063 3.25,-2.625 4.875,-2.75"
   id="path95" />

		<path
   fill="none"
   stroke="#000000"
   stroke-width="0.4"
   d="m 89.687,122.521 c 0,0 -0.5,0.563 -1.188,0.875 2.375,0.438 5.563,0.625 8.125,-1.688"
   id="path96" />

		<path
   fill="none"
   stroke="#000000"
   stroke-width="0.4"
   d="m 92.374,123.708 c 0,0 -2.438,1.188 -3.438,1.063 2.375,0.313 5.313,1.625 10.375,-2.938 -0.625,1.313 -0.938,2.563 -0.938,3.188 -0.938,1.625 -1,1.375 -1.875,2.25 1.75,-0.563 2.625,-0.813 3.5,-2 1,-1.375 2.75,-4.063 3.563,-4.875 -1.125,2 -2.063,5.813 2.25,6.5 -0.875,-1.438 -1.375,-3.313 -0.438,-4.313 0.625,-1 0.75,-1.438 0.75,-2.063 0.063,1.438 0.125,3 2.875,3.688 1.25,0.125 2.5,-0.5 3.375,0.125 -0.813,-1.125 -0.875,-1.438 -1.5,-1.813 -0.688,-0.625 -0.938,-2 -1.813,-2.563"
   id="path97" />

		<path
   fill="none"
   stroke="#000000"
   stroke-width="0.4"
   d="m 110.312,121.458 c 0,0 2.313,-0.25 3.375,-0.938 1.063,0 1.188,0.188 1.75,0.75 0.188,-0.875 0.625,-0.813 -0.625,-1.438 -1.188,-0.438 -4.188,-2.5 -4.813,-2.438"
   id="path98" />

		<path
   fill="none"
   stroke="#000000"
   stroke-width="0.4"
   d="m 112.374,118.521 c 0,0 2.563,-0.438 3.375,-2.063"
   id="path99" />

		<line
   fill="none"
   stroke="#000000"
   stroke-width="0.4"
   x1="78.561996"
   y1="112.396"
   x2="83.061996"
   y2="119.208"
   id="line99" />

		<line
   fill="none"
   stroke="#000000"
   stroke-width="0.4"
   x1="83.561996"
   y1="119.958"
   x2="83.186996"
   y2="121.208"
   id="line100" />

		<path
   fill="none"
   stroke="#000000"
   stroke-width="0.4"
   d="m 77.187,101.458 c 0,0 -0.063,1.313 -0.5,1.875"
   id="path100" />

		<path
   fill="none"
   stroke="#000000"
   stroke-width="0.4"
   d="m 72.437,103.646 c 0,0 1.563,-0.125 2.688,0.75"
   id="path101" />

		<path
   fill="none"
   stroke="#000000"
   stroke-width="0.4"
   d="m 76.499,111.833 c 0,0 0.688,-1.563 1.188,-0.625 0,1.063 0.125,3.125 0.125,3.125"
   id="path102" />

		<path
   fill="none"
   stroke="#000000"
   stroke-width="0.4"
   d="m 78.812,100.458 c 0,0 0.5,0.438 0.375,1.063"
   id="path103" />

		<path
   fill="none"
   stroke="#000000"
   stroke-width="0.4"
   d="m 71.374,106.208 c 0,0 0.125,-1.25 1.563,-1.25"
   id="path104" />

		<path
   fill="none"
   stroke="#000000"
   stroke-width="0.4"
   d="m 71.687,143.396 c 0,0 3.063,-1 4.188,-1.063"
   id="path105" />

		<path
   fill="none"
   stroke="#000000"
   stroke-width="0.4"
   d="m 74.249,147.458 c 0,0 1.313,-2.563 3.063,-3.188"
   id="path106" />

		<path
   fill="none"
   stroke="#000000"
   stroke-width="0.4"
   d="m 84.062,142.333 c 0,0 5.875,-5.063 7.438,-7.375 1.313,-1.875 3.25,-3.313 3.813,-3.625"
   id="path107" />

		<path
   fill="none"
   stroke="#000000"
   stroke-width="0.4"
   d="m 99.062,130.708 c 0,0 -2.875,2.875 -3.75,3.063"
   id="path108" />

		<path
   fill="none"
   stroke="#000000"
   stroke-width="0.4"
   d="m 91.999,132.146 c 0,0 2.813,-1.938 4,-2.063 1.313,-0.375 2.938,-1.563 3.25,-2.063"
   id="path109" />

		<path
   fill="none"
   stroke="#000000"
   stroke-width="0.4"
   d="m 100.062,130.208 c 0,0 1.938,-1.938 1.813,-4.188"
   id="path110" />

		<path
   fill="none"
   stroke="#000000"
   stroke-width="0.4"
   d="m 101.541,128.001 c 0,0 0.917,1.208 1.875,0 0.875,0.541 2.542,1.041 3.167,-0.043 0.75,0.334 2.208,0.375 2.958,-0.625 0.75,0.375 2.541,1.293 3.708,-0.707 0.667,0.207 3.125,0.749 3.667,-0.793 0,0 1.499,0.084 3.208,-0.458 2.709,-0.708 7.75,-1.583 8.75,-1.458"
   id="path111" />

		<path
   fill="none"
   stroke="#000000"
   stroke-width="0.4"
   d="m 91.499,110.771 c 0,0 2.75,-0.688 3.938,-0.625"
   id="path112" />

		<line
   fill="none"
   stroke="#000000"
   stroke-width="0.4"
   x1="94.458"
   y1="108.333"
   x2="97.811996"
   y2="107.833"
   id="line112" />

		<path
   fill="none"
   stroke="#000000"
   stroke-width="0.4"
   d="m 92.124,113.708 c 0,0 3.938,-0.25 6.438,-3.625 -2.125,2.188 -4.438,4 -4.688,4.5 1.625,-0.688 2.188,-1.125 3.813,-1.125 2.188,-0.188 3.438,-0.375 5.125,-2.188"
   id="path113" />

		<path
   fill="none"
   stroke="#000000"
   stroke-width="0.4"
   d="m 103.812,109.146 c 0,0 -1.625,1.125 -0.875,2.625 0.125,0.75 -0.563,1.688 -1,2.063 1.25,-0.875 5.25,-1.5 5.063,-5.813 1.75,0.688 2.625,1 3.5,0.063 -1.188,-0.5 -1.438,-0.938 -1.438,-2.375 0.063,-0.875 0.438,-1.25 1.063,-1.188 0.625,0.062 1.313,-0.438 0.813,-0.875 -0.563,-0.938 -0.438,-1.5 -0.188,-2.25 0.25,-1 0.625,-1.625 0.063,-2.313"
   id="path114" />

		<path
   fill="none"
   stroke="#000000"
   stroke-width="0.4"
   d="m 94.687,118.083 c 0,0 1.438,-0.563 1.625,-1.063"
   id="path115" />

		<path
   fill="none"
   stroke="#000000"
   stroke-width="0.4"
   d="m 97.687,118.521 c 0,0 0.938,-0.813 1.188,-1.25"
   id="path116" />

		<path
   fill="none"
   stroke="#000000"
   stroke-width="0.4"
   d="m 102.062,115.646 c 0,0 0.313,1.5 -0.5,2.125"
   id="path117" />

		<path
   fill="none"
   stroke="#000000"
   stroke-width="0.4"
   d="m 105.187,115.021 c 0,0 0.25,1.188 -0.75,1.875"
   id="path118" />

		<path
   fill="none"
   stroke="#000000"
   stroke-width="0.4"
   d="m 107.937,113.521 c 0,0 0.438,1.375 -0.438,1.938"
   id="path119" />

		<path
   fill="none"
   stroke="#000000"
   stroke-width="0.4"
   d="m 108.999,112.333 c 0,0 0.625,0.5 0.5,1.188"
   id="path120" />

		<path
   fill="none"
   stroke="#000000"
   stroke-width="0.4"
   d="m 105.812,96.896 c 0,0 2.375,1.125 2.063,-1.313"
   id="path121" />

		<path
   fill="none"
   stroke="#000000"
   stroke-width="0.4"
   d="m 110.374,93.708 c 0,0 1.563,-0.313 2.125,-0.313 0.125,0.688 0.25,1.313 -0.25,1.812"
   id="path122" />

		<path
   fill="none"
   stroke="#000000"
   stroke-width="0.4"
   d="m 99.749,104.708 2.188,-0.188 c 0,0 -0.438,1.063 -0.938,1.438 1,-0.188 1,-0.125 1.313,-0.625"
   id="path123" />

		<path
   fill="none"
   stroke="#000000"
   stroke-width="0.4"
   d="m 103.062,104.333 0.625,0.125 c 0,0 -0.188,1.313 -0.625,1.5 0.938,-0.125 1.313,-0.438 1.375,-0.688"
   id="path124" />

		<path
   fill="none"
   stroke="#000000"
   stroke-width="0.4"
   d="m 106.687,104.271 -1.313,-0.063 0.125,1.313 c 0,0 1.063,-0.688 1.188,-1.25 z"
   id="path125" />

		<path
   fill="none"
   stroke="#000000"
   stroke-width="0.4"
   d="m 99.562,96.927 c 0,0 3.219,-0.875 4.781,1.969 0.781,1.469 0.781,3.406 -0.875,4.531"
   id="path126" />

		<path
   d="m 105.749,92.865 c 0,0 -1.719,-0.125 -2.375,0.656 -0.688,-0.063 0.5,1.219 1.906,0.969 -0.25,-0.344 -0.563,-0.719 -0.313,-0.907 0.25,-0.188 0.782,-0.718 0.782,-0.718 z"
   id="path127" />

		<line
   fill="none"
   stroke="#000000"
   stroke-width="0.4"
   x1="103.437"
   y1="93.739998"
   x2="99.654999"
   y2="93.864998"
   id="line127" />

		<line
   fill="none"
   stroke="#000000"
   stroke-width="0.4"
   x1="100.03"
   y1="93.896004"
   x2="100.062"
   y2="94.614998"
   id="line128" />

		<path
   fill="none"
   stroke="#000000"
   stroke-width="0.5"
   d="m 87.905,100.489 c 0,0 -0.5,-2.031 0.625,-2.938"
   id="path128" />

		<path
   fill="none"
   stroke="#000000"
   stroke-width="0.5"
   d="m 115.749,116.458 c 0,0 7.5,-2.125 16.25,-1.375 7.875,0.875 11.625,1.75 15.125,1.375 3.5,-0.375 7.375,-2 7,-4.75 -0.5,-2 -1.75,-3.25 -4.625,-3.25 -1.5,0 -17.75,-0.625 -22.625,2.5 1.375,-1.125 1.625,-1.75 1.125,-1.875 -0.5,-0.125 -2.75,1.125 -3.875,1.375 1,-0.875 1.625,-1.875 0.625,-1.875 -1,-0.25 -4.875,-2.25 -4.625,-6.125 0.625,-4.5 1.625,-5.25 6.125,-6.375 3.375,-0.25 7.125,0.75 8.875,1.125 2.375,0 5.25,0.25 3.75,-4.125 1.75,0.5 2.125,2.625 1.5,4.375 1.375,0.625 3.5,1 5.75,-1.5 0.5,-1.374 0.5,-1.624 -0.25,-3.25 1.875,1.125 2.875,3.125 1.125,5.25 1.625,0.375 5.25,0 6.5,-1.5 1.75,-1.749 3.25,-3.625 6.5,-3.25 -3.375,1.625 -4,2 -5.125,5.75 -1.125,1.5 -4.125,3.125 -5.875,3.125 -2.5,0.125 -6.875,-0.25 -13.5,-2.625 -6.625,-2.375 -13.375,-2.5 -13.25,2.375 0.75,3 1,5 8.625,4.75 7.625,-0.25 18.625,-0.375 18.625,-0.375 0,0 4.125,-0.75 4.875,-0.75 v 1.375 c 0,0 3.875,-0.625 4.5,-0.5 -0.5,0.875 -1.5,1.875 -2.625,2.125 1,0.375 1.875,0.875 3,0.375 -0.5,0.625 -2.375,1.125 -2.375,1.625 1.125,0.625 1.625,0.5 2.25,0.375 -0.375,0.75 -0.75,1.125 -1.75,1.375 -0.125,0.75 -0.75,4.75 -4.125,5.875 -3.375,1.125 -8.875,1.375 -9.375,1.375 -0.25,1.5 0,3.125 0,3.125 0,0 1.875,1.125 2,1.875 0.125,0.75 1,2.5 0.875,3.375 1.75,0.625 2.375,0.5 3,1.25 0.625,-0.125 1.25,-0.25 2.125,0.25 1.375,-0.125 4.75,0.125 5.25,-0.125 0.5,-0.25 1.375,-1.25 1.75,-1.375 0.375,-0.125 1.375,-0.25 2,-0.25 0,0 -1.5,2.375 -1.563,3.375 -1,0.75 -1,0.563 -1.75,0.563 -0.688,0.5 -0.875,0.563 -0.938,1.188 0.938,0.25 2.813,0.313 3.375,-0.188 -0.063,0.75 -1.563,1.813 -2.313,2.063 -0.75,0.563 -0.688,0.75 -1,1.5 1,0 2.688,-0.625 3.313,-1.25 -0.063,0.625 -1.063,2.313 -3.625,2.75 -0.313,0.688 -0.438,1.313 -0.438,1.313 0,0 1.75,0.375 2.625,-0.75 0,1.063 -0.625,2 -2.25,2.25 -0.563,0.313 -0.875,0.625 -0.938,1.188 0.688,0.313 0.375,0.5 1.063,0.063 -0.625,0.75 -1.188,1.813 -1.5,2.375 -0.25,0.813 -0.313,1.188 -0.313,1.188 l -0.938,-0.625 c 0,0 -1,2.5 -2.625,2.75 -1.25,0.063 -2.313,-1.375 -2.5,-0.938 -0.188,0.5 -0.75,1.063 -0.375,1.625 0,0 -1,-0.625 -0.969,-1.563 -0.531,0.656 -2.094,1.844 -4.281,-0.063 -0.406,0.5 -0.469,0.406 -0.469,0.906 -0.469,-1.063 -0.375,-2.469 0.813,-3.438 -0.094,-0.656 -0.781,-2.75 2.156,-3.594 0.813,-0.188 1.531,-0.031 3.063,0.813 0.656,0.063 1.125,-0.406 1.219,-0.531 0.094,-0.125 -0.469,-3.469 -1.156,-4.094 -0.563,-0.375 -5.938,-2.469 -5.938,-2.469 0,0 -0.625,-0.219 -0.5,0.625 0.156,0.688 0.188,3.219 -0.969,4.125 -0.469,-1.406 -1.875,-5.188 -2.094,-5.438 0.625,1.594 1.781,3.656 -1.063,7.188 0,0 1.531,-4.5 -4,-9.031 -1.469,0.719 -4.188,2.906 -5.313,6.75 0,0.875 -0.156,1.094 0.844,1.25 0.938,0.313 1.531,0.313 2.094,0.094 0,0 1.406,-0.031 2.406,0.406 -1.281,0.563 -3.125,1.313 -4.656,0.938 -0.531,-0.156 -1.188,-0.625 -1.594,0.188 -0.219,0.594 -0.5,1.031 0.75,1.125 0.906,0.219 0.875,0.188 1.469,0.594 0.844,0.188 0.813,0.25 1.406,0.156 0,0 -0.188,1.281 -2.031,1.063 -1.344,-0.5 -1.156,-0.469 -1.938,-0.719 -1.188,-0.156 -2.563,-0.031 -1.531,0.813 0.906,0.219 0.969,0.031 1.313,0.594 -0.188,0.531 -1.344,0.656 -2.031,0.719 -0.844,0.094 -1.281,0.188 -1.656,-0.219 -0.594,-0.719 -1.563,-0.875 -1.531,0.031 0.313,0.344 0.406,0.344 1.125,0.563 -0.656,0.438 -1.813,0.313 -2.406,-0.031 -0.594,-0.219 -1.375,-0.094 -0.938,0.656 0.188,0.5 0.031,0.5 0.25,0.719 -0.75,-0.094 -2.438,-0.813 -2.531,-1.156 -0.094,-0.469 -0.125,-0.625 -0.031,-0.875 0,0 -1.125,1.375 -1.406,1.719 -0.938,0.031 -1.031,0.188 -1.188,-0.188 -0.157,-0.376 -0.719,-1.125 -0.719,-1.125 0,0 -1.688,1.625 -3.594,1.563 -1.813,-0.344 -1.938,-0.563 -2.25,-1.125 -0.594,0.156 -1.438,0.656 -1.406,1.406 -0.281,-0.563 -0.406,-0.656 -0.375,-1.219 -0.625,-0.125 -0.969,-0.188 -1.25,-0.688 0,0 -1.125,0.063 -0.844,0.844 -0.875,-1 -1.531,-3.094 1.938,-4.281 1.281,-0.25 1.563,-0.406 1.688,-0.438 -0.156,-0.531 -0.313,-1 -0.063,-1.219 -0.563,0.156 -1.438,0.688 -1.875,1.125 -0.219,-0.469 0.094,-1.875 2.281,-2.75 1.594,0.531 2.906,0.656 3.813,2.5 0,0 5.5,0.5 8.844,-4.375 0.031,-0.344 0.156,-0.563 -0.438,-0.469 -0.594,0.188 -3.344,-0.094 -4.875,0.156 0.625,-0.563 0.813,-1.031 1.75,-1.094 0.875,-0.281 1.938,-0.594 2.281,-1.094 -1.125,-0.156 -2.375,-0.156 -3,0.125 -0.844,0.188 -1.438,0.344 -1.906,-0.031 -0.563,-0.375 -1.375,-0.75 -1.813,-0.594 0.75,-0.375 1.188,-1.063 2.5,-0.906 1.219,0.063 4,0.563 6.25,-1.781 0,0 4.656,-4.427 9.938,-4.427 -0.125,-1.031 -0.531,-0.729 -0.406,-1.292 0,0 -9.469,0.875 -14.031,3 -4.375,1.563 -12.125,3.688 -17,1.938 0.438,1 0.188,0.938 0.813,1.438 0.875,0.438 2.125,0.25 2.375,1.125 -1.438,0.438 -1.938,-0.25 -2.938,0.375 -1.375,-0.313 -1.625,0.5 -2.75,-1.063 -0.875,0.5 -1.125,0.75 -1.125,0.75 0,0 0.75,0.813 1.313,1.813 0.813,0.125 2.125,0.125 2.188,0.438 -0.188,0.563 -0.688,1.063 -1.375,1 -1.25,-0.563 -4.188,-1.688 -4.625,-0.625 0.75,0.563 1.188,0.625 1.313,1.25 1,0.25 1.625,0.188 1.875,0.438 -0.125,0.625 -1.188,0.188 -1.438,0.625 -1.063,-0.063 -2.875,-0.813 -3.875,-0.188 1.125,1.063 2,1.938 2.5,1.688 0,0 -1.313,1 -2.938,0.375 -0.875,-0.438 -2.063,-0.5 -1.938,0.625 0.563,0.688 0.5,1.063 1.125,1.063 -0.813,0.438 -2.188,0.688 -2.5,-0.125 -0.438,0.375 -0.438,1.313 0.375,1.813 -0.813,0.313 -1.563,0.125 -2.438,-0.563 -0.563,0.75 -1.438,1.563 -1.875,1.25 -0.438,-0.438 -0.438,-0.438 -0.438,-0.438 0,0 0.125,1.563 -0.438,1.875 -0.625,0.5 -2.5,1.313 -2.5,1.313 0,0 0.5,-0.563 0.188,-1.75 -0.25,0.938 -1.063,2.875 -3.438,2.813 -1.063,-0.063 -1.063,0.125 -1.75,-0.625 -0.313,0.5 -0.813,1.625 -0.063,2.375 -0.813,-0.5 -1.5,-0.438 -1.688,-2 -0.813,0.063 -2.313,0.125 -3.188,-1 -0.438,0.813 -0.938,0.75 -0.188,1.563 -0.813,-0.25 -2.625,-0.875 -1.125,-3.375 0.875,-0.875 0.875,-1.25 1.938,-1.25 0.063,-0.75 -0.25,-0.688 -0.25,-0.688 0,0 -1.375,-0.313 -1,-1.563 0.875,-1.25 1.938,-2.063 3.938,-1.25 1.813,0.563 3,1.5 6.313,-0.313 3.5,-2.313 8.25,-8.063 8.813,-10.688 -0.75,0.125 -2.125,0.125 -2.313,1.25 0.063,-1.375 0.063,-3.375 0.25,-4.188 -0.875,1.375 -1.438,1.563 -1.5,2.563 -0.438,-1.625 -0.438,-1.813 -0.375,-3 -0.063,-1.25 -0.25,-1.813 -0.563,-2.563 -0.5,1.688 -0.438,2.313 -0.938,3 -0.438,-1.313 -0.938,-3.875 -0.875,-4.75 -0.75,-0.5 -1.688,-0.813 -1.688,-0.813 0,0 -0.5,1.188 -0.313,2 -0.938,-1.938 -1.625,-4.438 -1.563,-5.063 -0.313,0.938 -0.688,1.75 -0.688,1.75 l -0.875,-4.688 c 0,0 -1.063,0.5 -1.25,-0.625 -0.188,-1.375 -0.063,-1.688 -0.313,-1.938 -0.25,-0.25 -1.75,1.125 -2.875,-0.25 0.813,-0.5 0.813,-0.688 1.438,-0.25 0,0 -2.438,-1.438 -0.375,-3.5 -2.125,-0.375 -3.25,-0.875 -3.313,-1.625 -0.625,0.438 -0.875,0.375 -0.875,1.125 -0.25,-1.188 0.188,-3.375 1.938,-3.688 0,-1.25 -0.25,-2.375 1.438,-3.438 -0.75,-0.25 -1.813,-0.813 -2.5,0.063 1.75,-1.375 3,-2.438 4.5,-0.875 0.75,1.125 1.188,1.25 1.313,2.063 0.875,-0.563 1.625,-1 1.625,-1 0,0 0.25,-0.563 -1.063,-1.063 1.188,-0.438 2.75,0.063 3.125,1.625 0.188,0.875 -0.188,3.25 -0.688,4.25 -0.188,1.125 -0.125,1.875 0.5,2.875 0.625,1 5.25,6.75 5.25,6.75 0,0 1.125,0.875 1.25,-0.25 -0.313,-1.063 -0.438,-1.25 -1.063,-1.688 0,0 1.083,-0.25 2.625,1.375 0.417,0.375 1.625,0.667 3.209,-0.375 -0.375,-0.583 -2.459,-1.125 -3.292,-0.708 0.417,-0.792 0.458,-1.166 0.667,-1.458 0.416,-0.292 1.333,-0.917 1.958,-0.917 -0.667,-0.625 -1.209,-1.542 -1.917,-1.5 1.834,-0.125 1.625,-0.333 2.792,-0.042 1.208,0.042 2,-0.166 2.292,-1 -0.834,-0.875 -2.043,-1.458 -3.334,-1.25 0.709,-1.083 2.459,-1.041 4.042,-0.625 1.708,0.084 3.708,0 4.583,-1.75 -0.833,-0.125 -2.208,-0.332 -2.333,-1.291 0.292,-0.917 0.375,-0.834 1.917,-0.792 1.791,-0.208 4.041,0.209 3.958,-1.458 -0.667,-1.792 -1.792,-3.333 -3.958,-3.375 -2.167,-0.042 -2.542,-0.042 -2.542,-0.042 0,0 -0.75,0.083 -0.833,-1.167 0.041,-1.458 0.291,-2.249 0.375,-2.541 0.083,-0.292 0.208,-1.083 1.375,-1.083 l 1.375,-0.083 c 0,0 0.25,0 0.458,0.083 0.208,0.083 2.458,-0.25 2.792,-0.458 0.333,-0.208 2.041,-0.083 2.041,-0.083 0,0 1.334,-1 2.959,-0.667 0,0 2.083,0.75 3.708,0.375 0.75,-0.208 1.75,-0.167 2.292,-0.042 0.708,0.458 1.041,1.125 0.208,3 0.417,0.959 0.917,4.125 1.75,5.375 -1.292,-0.291 -1.251,-0.083 -1.667,-0.458 -0.125,0.667 0.166,3.25 0.875,4.375 0.292,0.542 0.625,0.792 -0.25,0.917 -0.625,-0.042 -0.834,0.042 -1.125,-0.75 0,1.041 -0.125,2.625 1.209,3.916 0.333,0.625 0.75,0.875 0.083,1.167 -0.625,0.083 -0.583,0.334 -1.458,0.042 0.166,1 0.375,2.75 3.25,2.875 -0.459,0.75 -1.959,2.708 -3.292,2.833 1.09,0.874 1.131,1.041 2.84,1.082 z"
   id="path129" />

	</g>

</g>
      <g
         id="Rand"
         transform="translate(306.13634,18.635977)">
	<path
   fill="none"
   stroke="#000000"
   stroke-width="2.5"
   d="m 13.958,146.143 c 11.829,19.909 33.85,41.746 73.625,42.107 73.334,-0.667 86.333,-74.333 86.333,-74.333 V 1.25 h -0.092"
   id="path130" />

</g>
    </g>
  </g>
</svg>
